<?xml version="1.0" encoding="utf-8" standalone="no"?>
<!DOCTYPE svg PUBLIC "-//W3C//DTD SVG 1.1//EN"
  "http://www.w3.org/Graphics/SVG/1.1/DTD/svg11.dtd">
<!-- Created with matplotlib (https://matplotlib.org/) -->
<svg height="576pt" version="1.1" viewBox="0 0 864 576" width="864pt" xmlns="http://www.w3.org/2000/svg" xmlns:xlink="http://www.w3.org/1999/xlink">
 <defs>
  <style type="text/css">
*{stroke-linecap:butt;stroke-linejoin:round;}
  </style>
 </defs>
 <g id="figure_1">
  <g id="patch_1">
   <path d="M 0 576 
L 864 576 
L 864 0 
L 0 0 
z
" style="fill:#ffffff;"/>
  </g>
  <g id="axes_1">
   <g id="patch_2">
    <path d="M 108 357.408 
L 777.6 357.408 
L 777.6 69.12 
L 108 69.12 
z
" style="fill:#ffffff;"/>
   </g>
   <g id="PathCollection_1">
    <path clip-path="url(#pefe5624eb6)" d="M 159.507692 286.189222 
C 178.847687 286.189222 197.39817 278.505361 211.073611 264.829919 
C 224.749053 251.154478 232.432915 232.603995 232.432915 213.264 
C 232.432915 193.924005 224.749053 175.373522 211.073611 161.698081 
C 197.39817 148.022639 178.847687 140.338778 159.507692 140.338778 
C 140.167697 140.338778 121.617215 148.022639 107.941773 161.698081 
C 94.266331 175.373522 86.58247 193.924005 86.58247 213.264 
C 86.58247 232.603995 94.266331 251.154478 107.941773 264.829919 
C 121.617215 278.505361 140.167697 286.189222 159.507692 286.189222 
z
" style="fill:#440154;fill-opacity:0.5;stroke:#440154;stroke-opacity:0.5;"/>
    <path clip-path="url(#pefe5624eb6)" d="M 262.523077 310.987811 
C 272.193074 310.987811 281.468316 307.14588 288.306037 300.30816 
C 295.143757 293.470439 298.985688 284.195198 298.985688 274.5252 
C 298.985688 264.855202 295.143757 255.579961 288.306037 248.74224 
C 281.468316 241.90452 272.193074 238.062589 262.523077 238.062589 
C 252.853079 238.062589 243.577838 241.90452 236.740117 248.74224 
C 229.902397 255.579961 226.060466 264.855202 226.060466 274.5252 
C 226.060466 284.195198 229.902397 293.470439 236.740117 300.30816 
C 243.577838 307.14588 252.853079 310.987811 262.523077 310.987811 
z
" style="fill:#482878;fill-opacity:0.5;stroke:#482878;stroke-opacity:0.5;"/>
    <path clip-path="url(#pefe5624eb6)" d="M 365.538462 306.158608 
C 375.839111 306.158608 385.719259 302.066116 393.002918 294.782457 
C 400.286578 287.498798 404.379069 277.61865 404.379069 267.318 
C 404.379069 257.01735 400.286578 247.137202 393.002918 239.853543 
C 385.719259 232.569884 375.839111 228.477392 365.538462 228.477392 
C 355.237812 228.477392 345.357664 232.569884 338.074005 239.853543 
C 330.790345 247.137202 326.697854 257.01735 326.697854 267.318 
C 326.697854 277.61865 330.790345 287.498798 338.074005 294.782457 
C 345.357664 302.066116 355.237812 306.158608 365.538462 306.158608 
z
" style="fill:#3e4989;fill-opacity:0.5;stroke:#3e4989;stroke-opacity:0.5;"/>
    <path clip-path="url(#pefe5624eb6)" d="M 417.046154 326.519264 
C 426.82126 326.519264 436.197319 322.635573 443.109363 315.723529 
C 450.021407 308.811485 453.905098 299.435426 453.905098 289.66032 
C 453.905098 279.885214 450.021407 270.509155 443.109363 263.597111 
C 436.197319 256.685067 426.82126 252.801376 417.046154 252.801376 
C 407.271048 252.801376 397.894989 256.685067 390.982945 263.597111 
C 384.070901 270.509155 380.18721 279.885214 380.18721 289.66032 
C 380.18721 299.435426 384.070901 308.811485 390.982945 315.723529 
C 397.894989 322.635573 407.271048 326.519264 417.046154 326.519264 
z
" style="fill:#31688e;fill-opacity:0.5;stroke:#31688e;stroke-opacity:0.5;"/>
    <path clip-path="url(#pefe5624eb6)" d="M 468.553846 334.049586 
C 480.326017 334.049586 491.617615 329.372453 499.941797 321.048271 
C 508.265979 312.724089 512.943112 301.432491 512.943112 289.66032 
C 512.943112 277.888149 508.265979 266.596551 499.941797 258.272369 
C 491.617615 249.948187 480.326017 245.271054 468.553846 245.271054 
C 456.781675 245.271054 445.490077 249.948187 437.165895 258.272369 
C 428.841713 266.596551 424.16458 277.888149 424.16458 289.66032 
C 424.16458 301.432491 428.841713 312.724089 437.165895 321.048271 
C 445.490077 329.372453 456.781675 334.049586 468.553846 334.049586 
z
" style="fill:#26828e;fill-opacity:0.5;stroke:#26828e;stroke-opacity:0.5;"/>
    <path clip-path="url(#pefe5624eb6)" d="M 520.061538 285.762611 
C 529.731536 285.762611 539.006777 281.92068 545.844498 275.08296 
C 552.682219 268.245239 556.52415 258.969998 556.52415 249.3 
C 556.52415 239.630002 552.682219 230.354761 545.844498 223.51704 
C 539.006777 216.67932 529.731536 212.837389 520.061538 212.837389 
C 510.391541 212.837389 501.1163 216.67932 494.278579 223.51704 
C 487.440858 230.354761 483.598927 239.630002 483.598927 249.3 
C 483.598927 258.969998 487.440858 268.245239 494.278579 275.08296 
C 501.1163 281.92068 510.391541 285.762611 520.061538 285.762611 
z
" style="fill:#1f9e89;fill-opacity:0.5;stroke:#1f9e89;stroke-opacity:0.5;"/>
    <path clip-path="url(#pefe5624eb6)" d="M 623.076923 237.653602 
C 634.323551 237.653602 645.111059 233.18527 653.063626 225.232703 
C 661.016193 217.280136 665.484525 206.492628 665.484525 195.246 
C 665.484525 183.999372 661.016193 173.211864 653.063626 165.259297 
C 645.111059 157.30673 634.323551 152.838398 623.076923 152.838398 
C 611.830296 152.838398 601.042787 157.30673 593.09022 165.259297 
C 585.137653 173.211864 580.669321 183.999372 580.669321 195.246 
C 580.669321 206.492628 585.137653 217.280136 593.09022 225.232703 
C 601.042787 233.18527 611.830296 237.653602 623.076923 237.653602 
z
" style="fill:#35b779;fill-opacity:0.5;stroke:#35b779;stroke-opacity:0.5;"/>
    <path clip-path="url(#pefe5624eb6)" d="M 674.584615 179.239942 
C 684.675048 179.239942 694.35356 175.230971 701.488573 168.095958 
C 708.623586 160.960945 712.632557 151.282432 712.632557 141.192 
C 712.632557 131.101568 708.623586 121.423055 701.488573 114.288042 
C 694.35356 107.153029 684.675048 103.144058 674.584615 103.144058 
C 664.494183 103.144058 654.815671 107.153029 647.680658 114.288042 
C 640.545645 121.423055 636.536673 131.101568 636.536673 141.192 
C 636.536673 151.282432 640.545645 160.960945 647.680658 168.095958 
C 654.815671 175.230971 664.494183 179.239942 674.584615 179.239942 
z
" style="fill:#6ece58;fill-opacity:0.5;stroke:#6ece58;stroke-opacity:0.5;"/>
    <path clip-path="url(#pefe5624eb6)" d="M 674.584615 286.555277 
C 684.46483 286.555277 693.941707 282.629826 700.928074 275.643459 
C 707.914441 268.657092 711.839892 259.180215 711.839892 249.3 
C 711.839892 239.419785 707.914441 229.942908 700.928074 222.956541 
C 693.941707 215.970174 684.46483 212.044723 674.584615 212.044723 
C 664.704401 212.044723 655.227524 215.970174 648.241157 222.956541 
C 641.25479 229.942908 637.329339 239.419785 637.329339 249.3 
C 637.329339 259.180215 641.25479 268.657092 648.241157 275.643459 
C 655.227524 282.629826 664.704401 286.555277 674.584615 286.555277 
z
" style="fill:#b5de2b;fill-opacity:0.5;stroke:#b5de2b;stroke-opacity:0.5;"/>
    <path clip-path="url(#pefe5624eb6)" d="M 726.092308 261.726409 
C 736.077631 261.726409 745.655326 257.759198 752.716016 250.698508 
C 759.776706 243.637818 763.743917 234.060124 763.743917 224.0748 
C 763.743917 214.089476 759.776706 204.511782 752.716016 197.451092 
C 745.655326 190.390402 736.077631 186.423191 726.092308 186.423191 
C 716.106984 186.423191 706.529289 190.390402 699.468599 197.451092 
C 692.407909 204.511782 688.440698 214.089476 688.440698 224.0748 
C 688.440698 234.060124 692.407909 243.637818 699.468599 250.698508 
C 706.529289 257.759198 716.106984 261.726409 726.092308 261.726409 
z
" style="fill:#fde725;fill-opacity:0.5;stroke:#fde725;stroke-opacity:0.5;"/>
   </g>
   <g id="matplotlib.axis_1">
    <g id="xtick_1">
     <g id="line2d_1">
      <path clip-path="url(#pefe5624eb6)" d="M 108 357.408 
L 108 69.12 
" style="fill:none;stroke:#b0b0b0;stroke-linecap:square;stroke-width:0.8;"/>
     </g>
     <g id="line2d_2">
      <defs>
       <path d="M 0 0 
L 0 3.5 
" id="m79ccb5b1c8" style="stroke:#000000;stroke-width:0.8;"/>
      </defs>
      <g>
       <use style="stroke:#000000;stroke-width:0.8;" x="108" xlink:href="#m79ccb5b1c8" y="357.408"/>
      </g>
     </g>
     <g id="text_1">
      <!-- 1996 -->
      <defs>
       <path d="M 12.40625 8.296875 
L 28.515625 8.296875 
L 28.515625 63.921875 
L 10.984375 60.40625 
L 10.984375 69.390625 
L 28.421875 72.90625 
L 38.28125 72.90625 
L 38.28125 8.296875 
L 54.390625 8.296875 
L 54.390625 0 
L 12.40625 0 
z
" id="DejaVuSans-49"/>
       <path d="M 10.984375 1.515625 
L 10.984375 10.5 
Q 14.703125 8.734375 18.5 7.8125 
Q 22.3125 6.890625 25.984375 6.890625 
Q 35.75 6.890625 40.890625 13.453125 
Q 46.046875 20.015625 46.78125 33.40625 
Q 43.953125 29.203125 39.59375 26.953125 
Q 35.25 24.703125 29.984375 24.703125 
Q 19.046875 24.703125 12.671875 31.3125 
Q 6.296875 37.9375 6.296875 49.421875 
Q 6.296875 60.640625 12.9375 67.421875 
Q 19.578125 74.21875 30.609375 74.21875 
Q 43.265625 74.21875 49.921875 64.515625 
Q 56.59375 54.828125 56.59375 36.375 
Q 56.59375 19.140625 48.40625 8.859375 
Q 40.234375 -1.421875 26.421875 -1.421875 
Q 22.703125 -1.421875 18.890625 -0.6875 
Q 15.09375 0.046875 10.984375 1.515625 
z
M 30.609375 32.421875 
Q 37.25 32.421875 41.125 36.953125 
Q 45.015625 41.5 45.015625 49.421875 
Q 45.015625 57.28125 41.125 61.84375 
Q 37.25 66.40625 30.609375 66.40625 
Q 23.96875 66.40625 20.09375 61.84375 
Q 16.21875 57.28125 16.21875 49.421875 
Q 16.21875 41.5 20.09375 36.953125 
Q 23.96875 32.421875 30.609375 32.421875 
z
" id="DejaVuSans-57"/>
       <path d="M 33.015625 40.375 
Q 26.375 40.375 22.484375 35.828125 
Q 18.609375 31.296875 18.609375 23.390625 
Q 18.609375 15.53125 22.484375 10.953125 
Q 26.375 6.390625 33.015625 6.390625 
Q 39.65625 6.390625 43.53125 10.953125 
Q 47.40625 15.53125 47.40625 23.390625 
Q 47.40625 31.296875 43.53125 35.828125 
Q 39.65625 40.375 33.015625 40.375 
z
M 52.59375 71.296875 
L 52.59375 62.3125 
Q 48.875 64.0625 45.09375 64.984375 
Q 41.3125 65.921875 37.59375 65.921875 
Q 27.828125 65.921875 22.671875 59.328125 
Q 17.53125 52.734375 16.796875 39.40625 
Q 19.671875 43.65625 24.015625 45.921875 
Q 28.375 48.1875 33.59375 48.1875 
Q 44.578125 48.1875 50.953125 41.515625 
Q 57.328125 34.859375 57.328125 23.390625 
Q 57.328125 12.15625 50.6875 5.359375 
Q 44.046875 -1.421875 33.015625 -1.421875 
Q 20.359375 -1.421875 13.671875 8.265625 
Q 6.984375 17.96875 6.984375 36.375 
Q 6.984375 53.65625 15.1875 63.9375 
Q 23.390625 74.21875 37.203125 74.21875 
Q 40.921875 74.21875 44.703125 73.484375 
Q 48.484375 72.75 52.59375 71.296875 
z
" id="DejaVuSans-54"/>
      </defs>
      <g transform="translate(95.275 372.006438)scale(0.1 -0.1)">
       <use xlink:href="#DejaVuSans-49"/>
       <use x="63.623047" xlink:href="#DejaVuSans-57"/>
       <use x="127.246094" xlink:href="#DejaVuSans-57"/>
       <use x="190.869141" xlink:href="#DejaVuSans-54"/>
      </g>
     </g>
    </g>
    <g id="xtick_2">
     <g id="line2d_3">
      <path clip-path="url(#pefe5624eb6)" d="M 159.507692 357.408 
L 159.507692 69.12 
" style="fill:none;stroke:#b0b0b0;stroke-linecap:square;stroke-width:0.8;"/>
     </g>
     <g id="line2d_4">
      <g>
       <use style="stroke:#000000;stroke-width:0.8;" x="159.507692" xlink:href="#m79ccb5b1c8" y="357.408"/>
      </g>
     </g>
     <g id="text_2">
      <!-- 1997 -->
      <defs>
       <path d="M 8.203125 72.90625 
L 55.078125 72.90625 
L 55.078125 68.703125 
L 28.609375 0 
L 18.3125 0 
L 43.21875 64.59375 
L 8.203125 64.59375 
z
" id="DejaVuSans-55"/>
      </defs>
      <g transform="translate(146.782692 372.006438)scale(0.1 -0.1)">
       <use xlink:href="#DejaVuSans-49"/>
       <use x="63.623047" xlink:href="#DejaVuSans-57"/>
       <use x="127.246094" xlink:href="#DejaVuSans-57"/>
       <use x="190.869141" xlink:href="#DejaVuSans-55"/>
      </g>
     </g>
    </g>
    <g id="xtick_3">
     <g id="line2d_5">
      <path clip-path="url(#pefe5624eb6)" d="M 211.015385 357.408 
L 211.015385 69.12 
" style="fill:none;stroke:#b0b0b0;stroke-linecap:square;stroke-width:0.8;"/>
     </g>
     <g id="line2d_6">
      <g>
       <use style="stroke:#000000;stroke-width:0.8;" x="211.015385" xlink:href="#m79ccb5b1c8" y="357.408"/>
      </g>
     </g>
     <g id="text_3">
      <!-- 1998 -->
      <defs>
       <path d="M 31.78125 34.625 
Q 24.75 34.625 20.71875 30.859375 
Q 16.703125 27.09375 16.703125 20.515625 
Q 16.703125 13.921875 20.71875 10.15625 
Q 24.75 6.390625 31.78125 6.390625 
Q 38.8125 6.390625 42.859375 10.171875 
Q 46.921875 13.96875 46.921875 20.515625 
Q 46.921875 27.09375 42.890625 30.859375 
Q 38.875 34.625 31.78125 34.625 
z
M 21.921875 38.8125 
Q 15.578125 40.375 12.03125 44.71875 
Q 8.5 49.078125 8.5 55.328125 
Q 8.5 64.0625 14.71875 69.140625 
Q 20.953125 74.21875 31.78125 74.21875 
Q 42.671875 74.21875 48.875 69.140625 
Q 55.078125 64.0625 55.078125 55.328125 
Q 55.078125 49.078125 51.53125 44.71875 
Q 48 40.375 41.703125 38.8125 
Q 48.828125 37.15625 52.796875 32.3125 
Q 56.78125 27.484375 56.78125 20.515625 
Q 56.78125 9.90625 50.3125 4.234375 
Q 43.84375 -1.421875 31.78125 -1.421875 
Q 19.734375 -1.421875 13.25 4.234375 
Q 6.78125 9.90625 6.78125 20.515625 
Q 6.78125 27.484375 10.78125 32.3125 
Q 14.796875 37.15625 21.921875 38.8125 
z
M 18.3125 54.390625 
Q 18.3125 48.734375 21.84375 45.5625 
Q 25.390625 42.390625 31.78125 42.390625 
Q 38.140625 42.390625 41.71875 45.5625 
Q 45.3125 48.734375 45.3125 54.390625 
Q 45.3125 60.0625 41.71875 63.234375 
Q 38.140625 66.40625 31.78125 66.40625 
Q 25.390625 66.40625 21.84375 63.234375 
Q 18.3125 60.0625 18.3125 54.390625 
z
" id="DejaVuSans-56"/>
      </defs>
      <g transform="translate(198.290385 372.006438)scale(0.1 -0.1)">
       <use xlink:href="#DejaVuSans-49"/>
       <use x="63.623047" xlink:href="#DejaVuSans-57"/>
       <use x="127.246094" xlink:href="#DejaVuSans-57"/>
       <use x="190.869141" xlink:href="#DejaVuSans-56"/>
      </g>
     </g>
    </g>
    <g id="xtick_4">
     <g id="line2d_7">
      <path clip-path="url(#pefe5624eb6)" d="M 262.523077 357.408 
L 262.523077 69.12 
" style="fill:none;stroke:#b0b0b0;stroke-linecap:square;stroke-width:0.8;"/>
     </g>
     <g id="line2d_8">
      <g>
       <use style="stroke:#000000;stroke-width:0.8;" x="262.523077" xlink:href="#m79ccb5b1c8" y="357.408"/>
      </g>
     </g>
     <g id="text_4">
      <!-- 1999 -->
      <g transform="translate(249.798077 372.006438)scale(0.1 -0.1)">
       <use xlink:href="#DejaVuSans-49"/>
       <use x="63.623047" xlink:href="#DejaVuSans-57"/>
       <use x="127.246094" xlink:href="#DejaVuSans-57"/>
       <use x="190.869141" xlink:href="#DejaVuSans-57"/>
      </g>
     </g>
    </g>
    <g id="xtick_5">
     <g id="line2d_9">
      <path clip-path="url(#pefe5624eb6)" d="M 314.030769 357.408 
L 314.030769 69.12 
" style="fill:none;stroke:#b0b0b0;stroke-linecap:square;stroke-width:0.8;"/>
     </g>
     <g id="line2d_10">
      <g>
       <use style="stroke:#000000;stroke-width:0.8;" x="314.030769" xlink:href="#m79ccb5b1c8" y="357.408"/>
      </g>
     </g>
     <g id="text_5">
      <!-- 2000 -->
      <defs>
       <path d="M 19.1875 8.296875 
L 53.609375 8.296875 
L 53.609375 0 
L 7.328125 0 
L 7.328125 8.296875 
Q 12.9375 14.109375 22.625 23.890625 
Q 32.328125 33.6875 34.8125 36.53125 
Q 39.546875 41.84375 41.421875 45.53125 
Q 43.3125 49.21875 43.3125 52.78125 
Q 43.3125 58.59375 39.234375 62.25 
Q 35.15625 65.921875 28.609375 65.921875 
Q 23.96875 65.921875 18.8125 64.3125 
Q 13.671875 62.703125 7.8125 59.421875 
L 7.8125 69.390625 
Q 13.765625 71.78125 18.9375 73 
Q 24.125 74.21875 28.421875 74.21875 
Q 39.75 74.21875 46.484375 68.546875 
Q 53.21875 62.890625 53.21875 53.421875 
Q 53.21875 48.921875 51.53125 44.890625 
Q 49.859375 40.875 45.40625 35.40625 
Q 44.1875 33.984375 37.640625 27.21875 
Q 31.109375 20.453125 19.1875 8.296875 
z
" id="DejaVuSans-50"/>
       <path d="M 31.78125 66.40625 
Q 24.171875 66.40625 20.328125 58.90625 
Q 16.5 51.421875 16.5 36.375 
Q 16.5 21.390625 20.328125 13.890625 
Q 24.171875 6.390625 31.78125 6.390625 
Q 39.453125 6.390625 43.28125 13.890625 
Q 47.125 21.390625 47.125 36.375 
Q 47.125 51.421875 43.28125 58.90625 
Q 39.453125 66.40625 31.78125 66.40625 
z
M 31.78125 74.21875 
Q 44.046875 74.21875 50.515625 64.515625 
Q 56.984375 54.828125 56.984375 36.375 
Q 56.984375 17.96875 50.515625 8.265625 
Q 44.046875 -1.421875 31.78125 -1.421875 
Q 19.53125 -1.421875 13.0625 8.265625 
Q 6.59375 17.96875 6.59375 36.375 
Q 6.59375 54.828125 13.0625 64.515625 
Q 19.53125 74.21875 31.78125 74.21875 
z
" id="DejaVuSans-48"/>
      </defs>
      <g transform="translate(301.305769 372.006438)scale(0.1 -0.1)">
       <use xlink:href="#DejaVuSans-50"/>
       <use x="63.623047" xlink:href="#DejaVuSans-48"/>
       <use x="127.246094" xlink:href="#DejaVuSans-48"/>
       <use x="190.869141" xlink:href="#DejaVuSans-48"/>
      </g>
     </g>
    </g>
    <g id="xtick_6">
     <g id="line2d_11">
      <path clip-path="url(#pefe5624eb6)" d="M 365.538462 357.408 
L 365.538462 69.12 
" style="fill:none;stroke:#b0b0b0;stroke-linecap:square;stroke-width:0.8;"/>
     </g>
     <g id="line2d_12">
      <g>
       <use style="stroke:#000000;stroke-width:0.8;" x="365.538462" xlink:href="#m79ccb5b1c8" y="357.408"/>
      </g>
     </g>
     <g id="text_6">
      <!-- 2001 -->
      <g transform="translate(352.813462 372.006438)scale(0.1 -0.1)">
       <use xlink:href="#DejaVuSans-50"/>
       <use x="63.623047" xlink:href="#DejaVuSans-48"/>
       <use x="127.246094" xlink:href="#DejaVuSans-48"/>
       <use x="190.869141" xlink:href="#DejaVuSans-49"/>
      </g>
     </g>
    </g>
    <g id="xtick_7">
     <g id="line2d_13">
      <path clip-path="url(#pefe5624eb6)" d="M 417.046154 357.408 
L 417.046154 69.12 
" style="fill:none;stroke:#b0b0b0;stroke-linecap:square;stroke-width:0.8;"/>
     </g>
     <g id="line2d_14">
      <g>
       <use style="stroke:#000000;stroke-width:0.8;" x="417.046154" xlink:href="#m79ccb5b1c8" y="357.408"/>
      </g>
     </g>
     <g id="text_7">
      <!-- 2002 -->
      <g transform="translate(404.321154 372.006438)scale(0.1 -0.1)">
       <use xlink:href="#DejaVuSans-50"/>
       <use x="63.623047" xlink:href="#DejaVuSans-48"/>
       <use x="127.246094" xlink:href="#DejaVuSans-48"/>
       <use x="190.869141" xlink:href="#DejaVuSans-50"/>
      </g>
     </g>
    </g>
    <g id="xtick_8">
     <g id="line2d_15">
      <path clip-path="url(#pefe5624eb6)" d="M 468.553846 357.408 
L 468.553846 69.12 
" style="fill:none;stroke:#b0b0b0;stroke-linecap:square;stroke-width:0.8;"/>
     </g>
     <g id="line2d_16">
      <g>
       <use style="stroke:#000000;stroke-width:0.8;" x="468.553846" xlink:href="#m79ccb5b1c8" y="357.408"/>
      </g>
     </g>
     <g id="text_8">
      <!-- 2003 -->
      <defs>
       <path d="M 40.578125 39.3125 
Q 47.65625 37.796875 51.625 33 
Q 55.609375 28.21875 55.609375 21.1875 
Q 55.609375 10.40625 48.1875 4.484375 
Q 40.765625 -1.421875 27.09375 -1.421875 
Q 22.515625 -1.421875 17.65625 -0.515625 
Q 12.796875 0.390625 7.625 2.203125 
L 7.625 11.71875 
Q 11.71875 9.328125 16.59375 8.109375 
Q 21.484375 6.890625 26.8125 6.890625 
Q 36.078125 6.890625 40.9375 10.546875 
Q 45.796875 14.203125 45.796875 21.1875 
Q 45.796875 27.640625 41.28125 31.265625 
Q 36.765625 34.90625 28.71875 34.90625 
L 20.21875 34.90625 
L 20.21875 43.015625 
L 29.109375 43.015625 
Q 36.375 43.015625 40.234375 45.921875 
Q 44.09375 48.828125 44.09375 54.296875 
Q 44.09375 59.90625 40.109375 62.90625 
Q 36.140625 65.921875 28.71875 65.921875 
Q 24.65625 65.921875 20.015625 65.03125 
Q 15.375 64.15625 9.8125 62.3125 
L 9.8125 71.09375 
Q 15.4375 72.65625 20.34375 73.4375 
Q 25.25 74.21875 29.59375 74.21875 
Q 40.828125 74.21875 47.359375 69.109375 
Q 53.90625 64.015625 53.90625 55.328125 
Q 53.90625 49.265625 50.4375 45.09375 
Q 46.96875 40.921875 40.578125 39.3125 
z
" id="DejaVuSans-51"/>
      </defs>
      <g transform="translate(455.828846 372.006438)scale(0.1 -0.1)">
       <use xlink:href="#DejaVuSans-50"/>
       <use x="63.623047" xlink:href="#DejaVuSans-48"/>
       <use x="127.246094" xlink:href="#DejaVuSans-48"/>
       <use x="190.869141" xlink:href="#DejaVuSans-51"/>
      </g>
     </g>
    </g>
    <g id="xtick_9">
     <g id="line2d_17">
      <path clip-path="url(#pefe5624eb6)" d="M 520.061538 357.408 
L 520.061538 69.12 
" style="fill:none;stroke:#b0b0b0;stroke-linecap:square;stroke-width:0.8;"/>
     </g>
     <g id="line2d_18">
      <g>
       <use style="stroke:#000000;stroke-width:0.8;" x="520.061538" xlink:href="#m79ccb5b1c8" y="357.408"/>
      </g>
     </g>
     <g id="text_9">
      <!-- 2004 -->
      <defs>
       <path d="M 37.796875 64.3125 
L 12.890625 25.390625 
L 37.796875 25.390625 
z
M 35.203125 72.90625 
L 47.609375 72.90625 
L 47.609375 25.390625 
L 58.015625 25.390625 
L 58.015625 17.1875 
L 47.609375 17.1875 
L 47.609375 0 
L 37.796875 0 
L 37.796875 17.1875 
L 4.890625 17.1875 
L 4.890625 26.703125 
z
" id="DejaVuSans-52"/>
      </defs>
      <g transform="translate(507.336538 372.006438)scale(0.1 -0.1)">
       <use xlink:href="#DejaVuSans-50"/>
       <use x="63.623047" xlink:href="#DejaVuSans-48"/>
       <use x="127.246094" xlink:href="#DejaVuSans-48"/>
       <use x="190.869141" xlink:href="#DejaVuSans-52"/>
      </g>
     </g>
    </g>
    <g id="xtick_10">
     <g id="line2d_19">
      <path clip-path="url(#pefe5624eb6)" d="M 571.569231 357.408 
L 571.569231 69.12 
" style="fill:none;stroke:#b0b0b0;stroke-linecap:square;stroke-width:0.8;"/>
     </g>
     <g id="line2d_20">
      <g>
       <use style="stroke:#000000;stroke-width:0.8;" x="571.569231" xlink:href="#m79ccb5b1c8" y="357.408"/>
      </g>
     </g>
     <g id="text_10">
      <!-- 2005 -->
      <defs>
       <path d="M 10.796875 72.90625 
L 49.515625 72.90625 
L 49.515625 64.59375 
L 19.828125 64.59375 
L 19.828125 46.734375 
Q 21.96875 47.46875 24.109375 47.828125 
Q 26.265625 48.1875 28.421875 48.1875 
Q 40.625 48.1875 47.75 41.5 
Q 54.890625 34.8125 54.890625 23.390625 
Q 54.890625 11.625 47.5625 5.09375 
Q 40.234375 -1.421875 26.90625 -1.421875 
Q 22.3125 -1.421875 17.546875 -0.640625 
Q 12.796875 0.140625 7.71875 1.703125 
L 7.71875 11.625 
Q 12.109375 9.234375 16.796875 8.0625 
Q 21.484375 6.890625 26.703125 6.890625 
Q 35.15625 6.890625 40.078125 11.328125 
Q 45.015625 15.765625 45.015625 23.390625 
Q 45.015625 31 40.078125 35.4375 
Q 35.15625 39.890625 26.703125 39.890625 
Q 22.75 39.890625 18.8125 39.015625 
Q 14.890625 38.140625 10.796875 36.28125 
z
" id="DejaVuSans-53"/>
      </defs>
      <g transform="translate(558.844231 372.006438)scale(0.1 -0.1)">
       <use xlink:href="#DejaVuSans-50"/>
       <use x="63.623047" xlink:href="#DejaVuSans-48"/>
       <use x="127.246094" xlink:href="#DejaVuSans-48"/>
       <use x="190.869141" xlink:href="#DejaVuSans-53"/>
      </g>
     </g>
    </g>
    <g id="xtick_11">
     <g id="line2d_21">
      <path clip-path="url(#pefe5624eb6)" d="M 623.076923 357.408 
L 623.076923 69.12 
" style="fill:none;stroke:#b0b0b0;stroke-linecap:square;stroke-width:0.8;"/>
     </g>
     <g id="line2d_22">
      <g>
       <use style="stroke:#000000;stroke-width:0.8;" x="623.076923" xlink:href="#m79ccb5b1c8" y="357.408"/>
      </g>
     </g>
     <g id="text_11">
      <!-- 2006 -->
      <g transform="translate(610.351923 372.006438)scale(0.1 -0.1)">
       <use xlink:href="#DejaVuSans-50"/>
       <use x="63.623047" xlink:href="#DejaVuSans-48"/>
       <use x="127.246094" xlink:href="#DejaVuSans-48"/>
       <use x="190.869141" xlink:href="#DejaVuSans-54"/>
      </g>
     </g>
    </g>
    <g id="xtick_12">
     <g id="line2d_23">
      <path clip-path="url(#pefe5624eb6)" d="M 674.584615 357.408 
L 674.584615 69.12 
" style="fill:none;stroke:#b0b0b0;stroke-linecap:square;stroke-width:0.8;"/>
     </g>
     <g id="line2d_24">
      <g>
       <use style="stroke:#000000;stroke-width:0.8;" x="674.584615" xlink:href="#m79ccb5b1c8" y="357.408"/>
      </g>
     </g>
     <g id="text_12">
      <!-- 2007 -->
      <g transform="translate(661.859615 372.006438)scale(0.1 -0.1)">
       <use xlink:href="#DejaVuSans-50"/>
       <use x="63.623047" xlink:href="#DejaVuSans-48"/>
       <use x="127.246094" xlink:href="#DejaVuSans-48"/>
       <use x="190.869141" xlink:href="#DejaVuSans-55"/>
      </g>
     </g>
    </g>
    <g id="xtick_13">
     <g id="line2d_25">
      <path clip-path="url(#pefe5624eb6)" d="M 726.092308 357.408 
L 726.092308 69.12 
" style="fill:none;stroke:#b0b0b0;stroke-linecap:square;stroke-width:0.8;"/>
     </g>
     <g id="line2d_26">
      <g>
       <use style="stroke:#000000;stroke-width:0.8;" x="726.092308" xlink:href="#m79ccb5b1c8" y="357.408"/>
      </g>
     </g>
     <g id="text_13">
      <!-- 2008 -->
      <g transform="translate(713.367308 372.006438)scale(0.1 -0.1)">
       <use xlink:href="#DejaVuSans-50"/>
       <use x="63.623047" xlink:href="#DejaVuSans-48"/>
       <use x="127.246094" xlink:href="#DejaVuSans-48"/>
       <use x="190.869141" xlink:href="#DejaVuSans-56"/>
      </g>
     </g>
    </g>
    <g id="xtick_14">
     <g id="line2d_27">
      <path clip-path="url(#pefe5624eb6)" d="M 777.6 357.408 
L 777.6 69.12 
" style="fill:none;stroke:#b0b0b0;stroke-linecap:square;stroke-width:0.8;"/>
     </g>
     <g id="line2d_28">
      <g>
       <use style="stroke:#000000;stroke-width:0.8;" x="777.6" xlink:href="#m79ccb5b1c8" y="357.408"/>
      </g>
     </g>
     <g id="text_14">
      <!-- 2009 -->
      <g transform="translate(764.875 372.006438)scale(0.1 -0.1)">
       <use xlink:href="#DejaVuSans-50"/>
       <use x="63.623047" xlink:href="#DejaVuSans-48"/>
       <use x="127.246094" xlink:href="#DejaVuSans-48"/>
       <use x="190.869141" xlink:href="#DejaVuSans-57"/>
      </g>
     </g>
    </g>
   </g>
   <g id="matplotlib.axis_2">
    <g id="ytick_1">
     <g id="line2d_29">
      <path clip-path="url(#pefe5624eb6)" d="M 108 357.408 
L 777.6 357.408 
" style="fill:none;stroke:#b0b0b0;stroke-linecap:square;stroke-width:0.8;"/>
     </g>
     <g id="line2d_30">
      <defs>
       <path d="M 0 0 
L -3.5 0 
" id="m4e9520a0cc" style="stroke:#000000;stroke-width:0.8;"/>
      </defs>
      <g>
       <use style="stroke:#000000;stroke-width:0.8;" x="108" xlink:href="#m4e9520a0cc" y="357.408"/>
      </g>
     </g>
     <g id="text_15">
      <!-- $0M -->
      <defs>
       <path d="M 33.796875 -14.703125 
L 28.90625 -14.703125 
L 28.859375 0 
Q 23.734375 0.09375 18.609375 1.1875 
Q 13.484375 2.296875 8.296875 4.5 
L 8.296875 13.28125 
Q 13.28125 10.15625 18.375 8.5625 
Q 23.484375 6.984375 28.90625 6.9375 
L 28.90625 29.203125 
Q 18.109375 30.953125 13.203125 35.15625 
Q 8.296875 39.359375 8.296875 46.6875 
Q 8.296875 54.640625 13.625 59.21875 
Q 18.953125 63.8125 28.90625 64.5 
L 28.90625 75.984375 
L 33.796875 75.984375 
L 33.796875 64.65625 
Q 38.328125 64.453125 42.578125 63.6875 
Q 46.828125 62.9375 50.875 61.625 
L 50.875 53.078125 
Q 46.828125 55.125 42.546875 56.25 
Q 38.28125 57.375 33.796875 57.5625 
L 33.796875 36.71875 
Q 44.875 35.015625 50.09375 30.609375 
Q 55.328125 26.21875 55.328125 18.609375 
Q 55.328125 10.359375 49.78125 5.59375 
Q 44.234375 0.828125 33.796875 0.09375 
z
M 28.90625 37.59375 
L 28.90625 57.625 
Q 23.25 56.984375 20.265625 54.390625 
Q 17.28125 51.8125 17.28125 47.515625 
Q 17.28125 43.3125 20.03125 40.96875 
Q 22.796875 38.625 28.90625 37.59375 
z
M 33.796875 28.21875 
L 33.796875 7.078125 
Q 39.984375 7.90625 43.140625 10.59375 
Q 46.296875 13.28125 46.296875 17.671875 
Q 46.296875 21.96875 43.28125 24.5 
Q 40.28125 27.046875 33.796875 28.21875 
z
" id="DejaVuSans-36"/>
       <path d="M 9.8125 72.90625 
L 24.515625 72.90625 
L 43.109375 23.296875 
L 61.8125 72.90625 
L 76.515625 72.90625 
L 76.515625 0 
L 66.890625 0 
L 66.890625 64.015625 
L 48.09375 14.015625 
L 38.1875 14.015625 
L 19.390625 64.015625 
L 19.390625 0 
L 9.8125 0 
z
" id="DejaVuSans-77"/>
      </defs>
      <g transform="translate(79.646875 361.207219)scale(0.1 -0.1)">
       <use xlink:href="#DejaVuSans-36"/>
       <use x="63.623047" xlink:href="#DejaVuSans-48"/>
       <use x="127.246094" xlink:href="#DejaVuSans-77"/>
      </g>
     </g>
    </g>
    <g id="ytick_2">
     <g id="line2d_31">
      <path clip-path="url(#pefe5624eb6)" d="M 108 285.336 
L 777.6 285.336 
" style="fill:none;stroke:#b0b0b0;stroke-linecap:square;stroke-width:0.8;"/>
     </g>
     <g id="line2d_32">
      <g>
       <use style="stroke:#000000;stroke-width:0.8;" x="108" xlink:href="#m4e9520a0cc" y="285.336"/>
      </g>
     </g>
     <g id="text_16">
      <!-- $100M -->
      <g transform="translate(66.921875 289.135219)scale(0.1 -0.1)">
       <use xlink:href="#DejaVuSans-36"/>
       <use x="63.623047" xlink:href="#DejaVuSans-49"/>
       <use x="127.246094" xlink:href="#DejaVuSans-48"/>
       <use x="190.869141" xlink:href="#DejaVuSans-48"/>
       <use x="254.492188" xlink:href="#DejaVuSans-77"/>
      </g>
     </g>
    </g>
    <g id="ytick_3">
     <g id="line2d_33">
      <path clip-path="url(#pefe5624eb6)" d="M 108 213.264 
L 777.6 213.264 
" style="fill:none;stroke:#b0b0b0;stroke-linecap:square;stroke-width:0.8;"/>
     </g>
     <g id="line2d_34">
      <g>
       <use style="stroke:#000000;stroke-width:0.8;" x="108" xlink:href="#m4e9520a0cc" y="213.264"/>
      </g>
     </g>
     <g id="text_17">
      <!-- $200M -->
      <g transform="translate(66.921875 217.063219)scale(0.1 -0.1)">
       <use xlink:href="#DejaVuSans-36"/>
       <use x="63.623047" xlink:href="#DejaVuSans-50"/>
       <use x="127.246094" xlink:href="#DejaVuSans-48"/>
       <use x="190.869141" xlink:href="#DejaVuSans-48"/>
       <use x="254.492188" xlink:href="#DejaVuSans-77"/>
      </g>
     </g>
    </g>
    <g id="ytick_4">
     <g id="line2d_35">
      <path clip-path="url(#pefe5624eb6)" d="M 108 141.192 
L 777.6 141.192 
" style="fill:none;stroke:#b0b0b0;stroke-linecap:square;stroke-width:0.8;"/>
     </g>
     <g id="line2d_36">
      <g>
       <use style="stroke:#000000;stroke-width:0.8;" x="108" xlink:href="#m4e9520a0cc" y="141.192"/>
      </g>
     </g>
     <g id="text_18">
      <!-- $300M -->
      <g transform="translate(66.921875 144.991219)scale(0.1 -0.1)">
       <use xlink:href="#DejaVuSans-36"/>
       <use x="63.623047" xlink:href="#DejaVuSans-51"/>
       <use x="127.246094" xlink:href="#DejaVuSans-48"/>
       <use x="190.869141" xlink:href="#DejaVuSans-48"/>
       <use x="254.492188" xlink:href="#DejaVuSans-77"/>
      </g>
     </g>
    </g>
    <g id="ytick_5">
     <g id="line2d_37">
      <path clip-path="url(#pefe5624eb6)" d="M 108 69.12 
L 777.6 69.12 
" style="fill:none;stroke:#b0b0b0;stroke-linecap:square;stroke-width:0.8;"/>
     </g>
     <g id="line2d_38">
      <g>
       <use style="stroke:#000000;stroke-width:0.8;" x="108" xlink:href="#m4e9520a0cc" y="69.12"/>
      </g>
     </g>
     <g id="text_19">
      <!-- $400M -->
      <g transform="translate(66.921875 72.919219)scale(0.1 -0.1)">
       <use xlink:href="#DejaVuSans-36"/>
       <use x="63.623047" xlink:href="#DejaVuSans-52"/>
       <use x="127.246094" xlink:href="#DejaVuSans-48"/>
       <use x="190.869141" xlink:href="#DejaVuSans-48"/>
       <use x="254.492188" xlink:href="#DejaVuSans-77"/>
      </g>
     </g>
    </g>
    <g id="text_20">
     <!-- Production Budget -->
     <defs>
      <path d="M 19.671875 64.796875 
L 19.671875 37.40625 
L 32.078125 37.40625 
Q 38.96875 37.40625 42.71875 40.96875 
Q 46.484375 44.53125 46.484375 51.125 
Q 46.484375 57.671875 42.71875 61.234375 
Q 38.96875 64.796875 32.078125 64.796875 
z
M 9.8125 72.90625 
L 32.078125 72.90625 
Q 44.34375 72.90625 50.609375 67.359375 
Q 56.890625 61.8125 56.890625 51.125 
Q 56.890625 40.328125 50.609375 34.8125 
Q 44.34375 29.296875 32.078125 29.296875 
L 19.671875 29.296875 
L 19.671875 0 
L 9.8125 0 
z
" id="DejaVuSans-80"/>
      <path d="M 41.109375 46.296875 
Q 39.59375 47.171875 37.8125 47.578125 
Q 36.03125 48 33.890625 48 
Q 26.265625 48 22.1875 43.046875 
Q 18.109375 38.09375 18.109375 28.8125 
L 18.109375 0 
L 9.078125 0 
L 9.078125 54.6875 
L 18.109375 54.6875 
L 18.109375 46.1875 
Q 20.953125 51.171875 25.484375 53.578125 
Q 30.03125 56 36.53125 56 
Q 37.453125 56 38.578125 55.875 
Q 39.703125 55.765625 41.0625 55.515625 
z
" id="DejaVuSans-114"/>
      <path d="M 30.609375 48.390625 
Q 23.390625 48.390625 19.1875 42.75 
Q 14.984375 37.109375 14.984375 27.296875 
Q 14.984375 17.484375 19.15625 11.84375 
Q 23.34375 6.203125 30.609375 6.203125 
Q 37.796875 6.203125 41.984375 11.859375 
Q 46.1875 17.53125 46.1875 27.296875 
Q 46.1875 37.015625 41.984375 42.703125 
Q 37.796875 48.390625 30.609375 48.390625 
z
M 30.609375 56 
Q 42.328125 56 49.015625 48.375 
Q 55.71875 40.765625 55.71875 27.296875 
Q 55.71875 13.875 49.015625 6.21875 
Q 42.328125 -1.421875 30.609375 -1.421875 
Q 18.84375 -1.421875 12.171875 6.21875 
Q 5.515625 13.875 5.515625 27.296875 
Q 5.515625 40.765625 12.171875 48.375 
Q 18.84375 56 30.609375 56 
z
" id="DejaVuSans-111"/>
      <path d="M 45.40625 46.390625 
L 45.40625 75.984375 
L 54.390625 75.984375 
L 54.390625 0 
L 45.40625 0 
L 45.40625 8.203125 
Q 42.578125 3.328125 38.25 0.953125 
Q 33.9375 -1.421875 27.875 -1.421875 
Q 17.96875 -1.421875 11.734375 6.484375 
Q 5.515625 14.40625 5.515625 27.296875 
Q 5.515625 40.1875 11.734375 48.09375 
Q 17.96875 56 27.875 56 
Q 33.9375 56 38.25 53.625 
Q 42.578125 51.265625 45.40625 46.390625 
z
M 14.796875 27.296875 
Q 14.796875 17.390625 18.875 11.75 
Q 22.953125 6.109375 30.078125 6.109375 
Q 37.203125 6.109375 41.296875 11.75 
Q 45.40625 17.390625 45.40625 27.296875 
Q 45.40625 37.203125 41.296875 42.84375 
Q 37.203125 48.484375 30.078125 48.484375 
Q 22.953125 48.484375 18.875 42.84375 
Q 14.796875 37.203125 14.796875 27.296875 
z
" id="DejaVuSans-100"/>
      <path d="M 8.5 21.578125 
L 8.5 54.6875 
L 17.484375 54.6875 
L 17.484375 21.921875 
Q 17.484375 14.15625 20.5 10.265625 
Q 23.53125 6.390625 29.59375 6.390625 
Q 36.859375 6.390625 41.078125 11.03125 
Q 45.3125 15.671875 45.3125 23.6875 
L 45.3125 54.6875 
L 54.296875 54.6875 
L 54.296875 0 
L 45.3125 0 
L 45.3125 8.40625 
Q 42.046875 3.421875 37.71875 1 
Q 33.40625 -1.421875 27.6875 -1.421875 
Q 18.265625 -1.421875 13.375 4.4375 
Q 8.5 10.296875 8.5 21.578125 
z
M 31.109375 56 
z
" id="DejaVuSans-117"/>
      <path d="M 48.78125 52.59375 
L 48.78125 44.1875 
Q 44.96875 46.296875 41.140625 47.34375 
Q 37.3125 48.390625 33.40625 48.390625 
Q 24.65625 48.390625 19.8125 42.84375 
Q 14.984375 37.3125 14.984375 27.296875 
Q 14.984375 17.28125 19.8125 11.734375 
Q 24.65625 6.203125 33.40625 6.203125 
Q 37.3125 6.203125 41.140625 7.25 
Q 44.96875 8.296875 48.78125 10.40625 
L 48.78125 2.09375 
Q 45.015625 0.34375 40.984375 -0.53125 
Q 36.96875 -1.421875 32.421875 -1.421875 
Q 20.0625 -1.421875 12.78125 6.34375 
Q 5.515625 14.109375 5.515625 27.296875 
Q 5.515625 40.671875 12.859375 48.328125 
Q 20.21875 56 33.015625 56 
Q 37.15625 56 41.109375 55.140625 
Q 45.0625 54.296875 48.78125 52.59375 
z
" id="DejaVuSans-99"/>
      <path d="M 18.3125 70.21875 
L 18.3125 54.6875 
L 36.8125 54.6875 
L 36.8125 47.703125 
L 18.3125 47.703125 
L 18.3125 18.015625 
Q 18.3125 11.328125 20.140625 9.421875 
Q 21.96875 7.515625 27.59375 7.515625 
L 36.8125 7.515625 
L 36.8125 0 
L 27.59375 0 
Q 17.1875 0 13.234375 3.875 
Q 9.28125 7.765625 9.28125 18.015625 
L 9.28125 47.703125 
L 2.6875 47.703125 
L 2.6875 54.6875 
L 9.28125 54.6875 
L 9.28125 70.21875 
z
" id="DejaVuSans-116"/>
      <path d="M 9.421875 54.6875 
L 18.40625 54.6875 
L 18.40625 0 
L 9.421875 0 
z
M 9.421875 75.984375 
L 18.40625 75.984375 
L 18.40625 64.59375 
L 9.421875 64.59375 
z
" id="DejaVuSans-105"/>
      <path d="M 54.890625 33.015625 
L 54.890625 0 
L 45.90625 0 
L 45.90625 32.71875 
Q 45.90625 40.484375 42.875 44.328125 
Q 39.84375 48.1875 33.796875 48.1875 
Q 26.515625 48.1875 22.3125 43.546875 
Q 18.109375 38.921875 18.109375 30.90625 
L 18.109375 0 
L 9.078125 0 
L 9.078125 54.6875 
L 18.109375 54.6875 
L 18.109375 46.1875 
Q 21.34375 51.125 25.703125 53.5625 
Q 30.078125 56 35.796875 56 
Q 45.21875 56 50.046875 50.171875 
Q 54.890625 44.34375 54.890625 33.015625 
z
" id="DejaVuSans-110"/>
      <path id="DejaVuSans-32"/>
      <path d="M 19.671875 34.8125 
L 19.671875 8.109375 
L 35.5 8.109375 
Q 43.453125 8.109375 47.28125 11.40625 
Q 51.125 14.703125 51.125 21.484375 
Q 51.125 28.328125 47.28125 31.5625 
Q 43.453125 34.8125 35.5 34.8125 
z
M 19.671875 64.796875 
L 19.671875 42.828125 
L 34.28125 42.828125 
Q 41.5 42.828125 45.03125 45.53125 
Q 48.578125 48.25 48.578125 53.8125 
Q 48.578125 59.328125 45.03125 62.0625 
Q 41.5 64.796875 34.28125 64.796875 
z
M 9.8125 72.90625 
L 35.015625 72.90625 
Q 46.296875 72.90625 52.390625 68.21875 
Q 58.5 63.53125 58.5 54.890625 
Q 58.5 48.1875 55.375 44.234375 
Q 52.25 40.28125 46.1875 39.3125 
Q 53.46875 37.75 57.5 32.78125 
Q 61.53125 27.828125 61.53125 20.40625 
Q 61.53125 10.640625 54.890625 5.3125 
Q 48.25 0 35.984375 0 
L 9.8125 0 
z
" id="DejaVuSans-66"/>
      <path d="M 45.40625 27.984375 
Q 45.40625 37.75 41.375 43.109375 
Q 37.359375 48.484375 30.078125 48.484375 
Q 22.859375 48.484375 18.828125 43.109375 
Q 14.796875 37.75 14.796875 27.984375 
Q 14.796875 18.265625 18.828125 12.890625 
Q 22.859375 7.515625 30.078125 7.515625 
Q 37.359375 7.515625 41.375 12.890625 
Q 45.40625 18.265625 45.40625 27.984375 
z
M 54.390625 6.78125 
Q 54.390625 -7.171875 48.1875 -13.984375 
Q 42 -20.796875 29.203125 -20.796875 
Q 24.46875 -20.796875 20.265625 -20.09375 
Q 16.0625 -19.390625 12.109375 -17.921875 
L 12.109375 -9.1875 
Q 16.0625 -11.328125 19.921875 -12.34375 
Q 23.78125 -13.375 27.78125 -13.375 
Q 36.625 -13.375 41.015625 -8.765625 
Q 45.40625 -4.15625 45.40625 5.171875 
L 45.40625 9.625 
Q 42.625 4.78125 38.28125 2.390625 
Q 33.9375 0 27.875 0 
Q 17.828125 0 11.671875 7.65625 
Q 5.515625 15.328125 5.515625 27.984375 
Q 5.515625 40.671875 11.671875 48.328125 
Q 17.828125 56 27.875 56 
Q 33.9375 56 38.28125 53.609375 
Q 42.625 51.21875 45.40625 46.390625 
L 45.40625 54.6875 
L 54.390625 54.6875 
z
" id="DejaVuSans-103"/>
      <path d="M 56.203125 29.59375 
L 56.203125 25.203125 
L 14.890625 25.203125 
Q 15.484375 15.921875 20.484375 11.0625 
Q 25.484375 6.203125 34.421875 6.203125 
Q 39.59375 6.203125 44.453125 7.46875 
Q 49.3125 8.734375 54.109375 11.28125 
L 54.109375 2.78125 
Q 49.265625 0.734375 44.1875 -0.34375 
Q 39.109375 -1.421875 33.890625 -1.421875 
Q 20.796875 -1.421875 13.15625 6.1875 
Q 5.515625 13.8125 5.515625 26.8125 
Q 5.515625 40.234375 12.765625 48.109375 
Q 20.015625 56 32.328125 56 
Q 43.359375 56 49.78125 48.890625 
Q 56.203125 41.796875 56.203125 29.59375 
z
M 47.21875 32.234375 
Q 47.125 39.59375 43.09375 43.984375 
Q 39.0625 48.390625 32.421875 48.390625 
Q 24.90625 48.390625 20.390625 44.140625 
Q 15.875 39.890625 15.1875 32.171875 
z
" id="DejaVuSans-101"/>
     </defs>
     <g transform="translate(60.842187 259.436656)rotate(-90)scale(0.1 -0.1)">
      <use xlink:href="#DejaVuSans-80"/>
      <use x="58.552734" xlink:href="#DejaVuSans-114"/>
      <use x="97.416016" xlink:href="#DejaVuSans-111"/>
      <use x="158.597656" xlink:href="#DejaVuSans-100"/>
      <use x="222.074219" xlink:href="#DejaVuSans-117"/>
      <use x="285.453125" xlink:href="#DejaVuSans-99"/>
      <use x="340.433594" xlink:href="#DejaVuSans-116"/>
      <use x="379.642578" xlink:href="#DejaVuSans-105"/>
      <use x="407.425781" xlink:href="#DejaVuSans-111"/>
      <use x="468.607422" xlink:href="#DejaVuSans-110"/>
      <use x="531.986328" xlink:href="#DejaVuSans-32"/>
      <use x="563.773438" xlink:href="#DejaVuSans-66"/>
      <use x="632.376953" xlink:href="#DejaVuSans-117"/>
      <use x="695.755859" xlink:href="#DejaVuSans-100"/>
      <use x="759.232422" xlink:href="#DejaVuSans-103"/>
      <use x="822.708984" xlink:href="#DejaVuSans-101"/>
      <use x="884.232422" xlink:href="#DejaVuSans-116"/>
     </g>
    </g>
   </g>
   <g id="patch_3">
    <path d="M 108 357.408 
L 108 69.12 
" style="fill:none;stroke:#000000;stroke-linecap:square;stroke-linejoin:miter;stroke-width:0.8;"/>
   </g>
   <g id="patch_4">
    <path d="M 777.6 357.408 
L 777.6 69.12 
" style="fill:none;stroke:#000000;stroke-linecap:square;stroke-linejoin:miter;stroke-width:0.8;"/>
   </g>
   <g id="patch_5">
    <path d="M 108 357.408 
L 777.6 357.408 
" style="fill:none;stroke:#000000;stroke-linecap:square;stroke-linejoin:miter;stroke-width:0.8;"/>
   </g>
   <g id="patch_6">
    <path d="M 108 69.12 
L 777.6 69.12 
" style="fill:none;stroke:#000000;stroke-linecap:square;stroke-linejoin:miter;stroke-width:0.8;"/>
   </g>
   <g id="text_21">
    <!-- Top 10 films by Worldwide Grosses -->
    <defs>
     <path d="M 0.484375 72.90625 
L 67.671875 72.90625 
L 67.671875 58.6875 
L 43.5 58.6875 
L 43.5 0 
L 24.703125 0 
L 24.703125 58.6875 
L 0.484375 58.6875 
z
" id="DejaVuSans-Bold-84"/>
     <path d="M 34.421875 43.5 
Q 28.609375 43.5 25.5625 39.328125 
Q 22.515625 35.15625 22.515625 27.296875 
Q 22.515625 19.4375 25.5625 15.25 
Q 28.609375 11.078125 34.421875 11.078125 
Q 40.140625 11.078125 43.15625 15.25 
Q 46.1875 19.4375 46.1875 27.296875 
Q 46.1875 35.15625 43.15625 39.328125 
Q 40.140625 43.5 34.421875 43.5 
z
M 34.421875 56 
Q 48.53125 56 56.46875 48.375 
Q 64.40625 40.765625 64.40625 27.296875 
Q 64.40625 13.8125 56.46875 6.1875 
Q 48.53125 -1.421875 34.421875 -1.421875 
Q 20.265625 -1.421875 12.28125 6.1875 
Q 4.296875 13.8125 4.296875 27.296875 
Q 4.296875 40.765625 12.28125 48.375 
Q 20.265625 56 34.421875 56 
z
" id="DejaVuSans-Bold-111"/>
     <path d="M 25.875 7.90625 
L 25.875 -20.796875 
L 8.40625 -20.796875 
L 8.40625 54.6875 
L 25.875 54.6875 
L 25.875 46.6875 
Q 29.5 51.46875 33.890625 53.734375 
Q 38.28125 56 44 56 
Q 54.109375 56 60.59375 47.96875 
Q 67.09375 39.9375 67.09375 27.296875 
Q 67.09375 14.65625 60.59375 6.609375 
Q 54.109375 -1.421875 44 -1.421875 
Q 38.28125 -1.421875 33.890625 0.84375 
Q 29.5 3.125 25.875 7.90625 
z
M 37.5 43.3125 
Q 31.890625 43.3125 28.875 39.1875 
Q 25.875 35.0625 25.875 27.296875 
Q 25.875 19.53125 28.875 15.40625 
Q 31.890625 11.28125 37.5 11.28125 
Q 43.109375 11.28125 46.0625 15.375 
Q 49.03125 19.484375 49.03125 27.296875 
Q 49.03125 35.109375 46.0625 39.203125 
Q 43.109375 43.3125 37.5 43.3125 
z
" id="DejaVuSans-Bold-112"/>
     <path id="DejaVuSans-Bold-32"/>
     <path d="M 11.71875 12.984375 
L 28.328125 12.984375 
L 28.328125 60.109375 
L 11.28125 56.59375 
L 11.28125 69.390625 
L 28.21875 72.90625 
L 46.09375 72.90625 
L 46.09375 12.984375 
L 62.703125 12.984375 
L 62.703125 0 
L 11.71875 0 
z
" id="DejaVuSans-Bold-49"/>
     <path d="M 46 36.53125 
Q 46 50.203125 43.4375 55.78125 
Q 40.875 61.375 34.8125 61.375 
Q 28.765625 61.375 26.171875 55.78125 
Q 23.578125 50.203125 23.578125 36.53125 
Q 23.578125 22.703125 26.171875 17.03125 
Q 28.765625 11.375 34.8125 11.375 
Q 40.828125 11.375 43.40625 17.03125 
Q 46 22.703125 46 36.53125 
z
M 64.796875 36.375 
Q 64.796875 18.265625 56.984375 8.421875 
Q 49.171875 -1.421875 34.8125 -1.421875 
Q 20.40625 -1.421875 12.59375 8.421875 
Q 4.78125 18.265625 4.78125 36.375 
Q 4.78125 54.546875 12.59375 64.375 
Q 20.40625 74.21875 34.8125 74.21875 
Q 49.171875 74.21875 56.984375 64.375 
Q 64.796875 54.546875 64.796875 36.375 
z
" id="DejaVuSans-Bold-48"/>
     <path d="M 44.390625 75.984375 
L 44.390625 64.5 
L 34.71875 64.5 
Q 31 64.5 29.53125 63.15625 
Q 28.078125 61.8125 28.078125 58.5 
L 28.078125 54.6875 
L 43.015625 54.6875 
L 43.015625 42.1875 
L 28.078125 42.1875 
L 28.078125 0 
L 10.59375 0 
L 10.59375 42.1875 
L 1.90625 42.1875 
L 1.90625 54.6875 
L 10.59375 54.6875 
L 10.59375 58.5 
Q 10.59375 67.4375 15.578125 71.703125 
Q 20.5625 75.984375 31 75.984375 
z
" id="DejaVuSans-Bold-102"/>
     <path d="M 8.40625 54.6875 
L 25.875 54.6875 
L 25.875 0 
L 8.40625 0 
z
M 8.40625 75.984375 
L 25.875 75.984375 
L 25.875 61.71875 
L 8.40625 61.71875 
z
" id="DejaVuSans-Bold-105"/>
     <path d="M 8.40625 75.984375 
L 25.875 75.984375 
L 25.875 0 
L 8.40625 0 
z
" id="DejaVuSans-Bold-108"/>
     <path d="M 59.078125 45.609375 
Q 62.40625 50.6875 66.96875 53.34375 
Q 71.53125 56 77 56 
Q 86.421875 56 91.359375 50.1875 
Q 96.296875 44.390625 96.296875 33.296875 
L 96.296875 0 
L 78.71875 0 
L 78.71875 28.515625 
Q 78.765625 29.15625 78.78125 29.828125 
Q 78.8125 30.515625 78.8125 31.78125 
Q 78.8125 37.59375 77.09375 40.203125 
Q 75.390625 42.828125 71.578125 42.828125 
Q 66.609375 42.828125 63.890625 38.71875 
Q 61.1875 34.625 61.078125 26.859375 
L 61.078125 0 
L 43.5 0 
L 43.5 28.515625 
Q 43.5 37.59375 41.9375 40.203125 
Q 40.375 42.828125 36.375 42.828125 
Q 31.34375 42.828125 28.609375 38.703125 
Q 25.875 34.578125 25.875 26.90625 
L 25.875 0 
L 8.296875 0 
L 8.296875 54.6875 
L 25.875 54.6875 
L 25.875 46.6875 
Q 29.109375 51.3125 33.28125 53.65625 
Q 37.453125 56 42.484375 56 
Q 48.140625 56 52.484375 53.265625 
Q 56.84375 50.53125 59.078125 45.609375 
z
" id="DejaVuSans-Bold-109"/>
     <path d="M 51.125 52.984375 
L 51.125 39.703125 
Q 45.515625 42.046875 40.28125 43.21875 
Q 35.0625 44.390625 30.421875 44.390625 
Q 25.4375 44.390625 23.015625 43.140625 
Q 20.609375 41.890625 20.609375 39.3125 
Q 20.609375 37.203125 22.4375 36.078125 
Q 24.265625 34.96875 29 34.421875 
L 32.078125 33.984375 
Q 45.515625 32.28125 50.140625 28.375 
Q 54.78125 24.46875 54.78125 16.109375 
Q 54.78125 7.375 48.328125 2.96875 
Q 41.890625 -1.421875 29.109375 -1.421875 
Q 23.6875 -1.421875 17.890625 -0.5625 
Q 12.109375 0.296875 6 2 
L 6 15.28125 
Q 11.234375 12.75 16.71875 11.46875 
Q 22.21875 10.203125 27.875 10.203125 
Q 33.015625 10.203125 35.59375 11.609375 
Q 38.1875 13.03125 38.1875 15.828125 
Q 38.1875 18.171875 36.40625 19.3125 
Q 34.625 20.453125 29.296875 21.09375 
L 26.21875 21.484375 
Q 14.546875 22.953125 9.859375 26.90625 
Q 5.171875 30.859375 5.171875 38.921875 
Q 5.171875 47.609375 11.125 51.796875 
Q 17.09375 56 29.390625 56 
Q 34.234375 56 39.546875 55.265625 
Q 44.875 54.546875 51.125 52.984375 
z
" id="DejaVuSans-Bold-115"/>
     <path d="M 37.5 11.28125 
Q 43.109375 11.28125 46.0625 15.375 
Q 49.03125 19.484375 49.03125 27.296875 
Q 49.03125 35.109375 46.0625 39.203125 
Q 43.109375 43.3125 37.5 43.3125 
Q 31.890625 43.3125 28.875 39.1875 
Q 25.875 35.0625 25.875 27.296875 
Q 25.875 19.53125 28.875 15.40625 
Q 31.890625 11.28125 37.5 11.28125 
z
M 25.875 46.6875 
Q 29.5 51.46875 33.890625 53.734375 
Q 38.28125 56 44 56 
Q 54.109375 56 60.59375 47.96875 
Q 67.09375 39.9375 67.09375 27.296875 
Q 67.09375 14.65625 60.59375 6.609375 
Q 54.109375 -1.421875 44 -1.421875 
Q 38.28125 -1.421875 33.890625 0.84375 
Q 29.5 3.125 25.875 7.90625 
L 25.875 0 
L 8.40625 0 
L 8.40625 75.984375 
L 25.875 75.984375 
z
" id="DejaVuSans-Bold-98"/>
     <path d="M 1.21875 54.6875 
L 18.703125 54.6875 
L 33.40625 17.578125 
L 45.90625 54.6875 
L 63.375 54.6875 
L 40.375 -5.171875 
Q 36.921875 -14.3125 32.296875 -17.9375 
Q 27.6875 -21.578125 20.125 -21.578125 
L 10.015625 -21.578125 
L 10.015625 -10.109375 
L 15.484375 -10.109375 
Q 19.921875 -10.109375 21.9375 -8.6875 
Q 23.96875 -7.28125 25.09375 -3.609375 
L 25.59375 -2.09375 
z
" id="DejaVuSans-Bold-121"/>
     <path d="M 2.984375 72.90625 
L 21 72.90625 
L 33.59375 19.921875 
L 46.09375 72.90625 
L 64.203125 72.90625 
L 76.703125 19.921875 
L 89.3125 72.90625 
L 107.171875 72.90625 
L 89.984375 0 
L 68.3125 0 
L 55.078125 55.421875 
L 42 0 
L 20.3125 0 
z
" id="DejaVuSans-Bold-87"/>
     <path d="M 49.03125 39.796875 
Q 46.734375 40.875 44.453125 41.375 
Q 42.1875 41.890625 39.890625 41.890625 
Q 33.15625 41.890625 29.515625 37.5625 
Q 25.875 33.25 25.875 25.203125 
L 25.875 0 
L 8.40625 0 
L 8.40625 54.6875 
L 25.875 54.6875 
L 25.875 45.703125 
Q 29.25 51.078125 33.609375 53.53125 
Q 37.984375 56 44.09375 56 
Q 44.96875 56 45.984375 55.921875 
Q 47.015625 55.859375 48.96875 55.609375 
z
" id="DejaVuSans-Bold-114"/>
     <path d="M 45.609375 46.6875 
L 45.609375 75.984375 
L 63.1875 75.984375 
L 63.1875 0 
L 45.609375 0 
L 45.609375 7.90625 
Q 42 3.078125 37.640625 0.828125 
Q 33.296875 -1.421875 27.59375 -1.421875 
Q 17.484375 -1.421875 10.984375 6.609375 
Q 4.5 14.65625 4.5 27.296875 
Q 4.5 39.9375 10.984375 47.96875 
Q 17.484375 56 27.59375 56 
Q 33.25 56 37.625 53.734375 
Q 42 51.46875 45.609375 46.6875 
z
M 34.078125 11.28125 
Q 39.703125 11.28125 42.65625 15.375 
Q 45.609375 19.484375 45.609375 27.296875 
Q 45.609375 35.109375 42.65625 39.203125 
Q 39.703125 43.3125 34.078125 43.3125 
Q 28.515625 43.3125 25.5625 39.203125 
Q 22.609375 35.109375 22.609375 27.296875 
Q 22.609375 19.484375 25.5625 15.375 
Q 28.515625 11.28125 34.078125 11.28125 
z
" id="DejaVuSans-Bold-100"/>
     <path d="M 3.515625 54.6875 
L 20.515625 54.6875 
L 29.6875 17 
L 38.921875 54.6875 
L 53.515625 54.6875 
L 62.703125 17.390625 
L 71.921875 54.6875 
L 88.921875 54.6875 
L 74.515625 0 
L 55.421875 0 
L 46.1875 37.59375 
L 37.015625 0 
L 17.921875 0 
z
" id="DejaVuSans-Bold-119"/>
     <path d="M 62.984375 27.484375 
L 62.984375 22.515625 
L 22.125 22.515625 
Q 22.75 16.359375 26.5625 13.28125 
Q 30.375 10.203125 37.203125 10.203125 
Q 42.71875 10.203125 48.5 11.84375 
Q 54.296875 13.484375 60.40625 16.796875 
L 60.40625 3.328125 
Q 54.203125 0.984375 48 -0.21875 
Q 41.796875 -1.421875 35.59375 -1.421875 
Q 20.75 -1.421875 12.515625 6.125 
Q 4.296875 13.671875 4.296875 27.296875 
Q 4.296875 40.671875 12.375 48.328125 
Q 20.453125 56 34.625 56 
Q 47.515625 56 55.25 48.234375 
Q 62.984375 40.484375 62.984375 27.484375 
z
M 45.015625 33.296875 
Q 45.015625 38.28125 42.109375 41.328125 
Q 39.203125 44.390625 34.515625 44.390625 
Q 29.4375 44.390625 26.265625 41.53125 
Q 23.09375 38.671875 22.3125 33.296875 
z
" id="DejaVuSans-Bold-101"/>
     <path d="M 74.703125 5.421875 
Q 67.671875 2 60.109375 0.28125 
Q 52.546875 -1.421875 44.484375 -1.421875 
Q 26.265625 -1.421875 15.625 8.765625 
Q 4.984375 18.953125 4.984375 36.375 
Q 4.984375 54 15.8125 64.109375 
Q 26.65625 74.21875 45.515625 74.21875 
Q 52.78125 74.21875 59.4375 72.84375 
Q 66.109375 71.484375 72.015625 68.796875 
L 72.015625 53.71875 
Q 65.921875 57.171875 59.890625 58.875 
Q 53.859375 60.59375 47.796875 60.59375 
Q 36.578125 60.59375 30.5 54.3125 
Q 24.421875 48.046875 24.421875 36.375 
Q 24.421875 24.8125 30.28125 18.5 
Q 36.140625 12.203125 46.921875 12.203125 
Q 49.859375 12.203125 52.375 12.5625 
Q 54.890625 12.9375 56.890625 13.71875 
L 56.890625 27.875 
L 45.40625 27.875 
L 45.40625 40.484375 
L 74.703125 40.484375 
z
" id="DejaVuSans-Bold-71"/>
    </defs>
    <g transform="translate(285.67125 63.12)scale(0.16 -0.16)">
     <use xlink:href="#DejaVuSans-Bold-84"/>
     <use x="54.962891" xlink:href="#DejaVuSans-Bold-111"/>
     <use x="123.664062" xlink:href="#DejaVuSans-Bold-112"/>
     <use x="195.246094" xlink:href="#DejaVuSans-Bold-32"/>
     <use x="230.060547" xlink:href="#DejaVuSans-Bold-49"/>
     <use x="299.640625" xlink:href="#DejaVuSans-Bold-48"/>
     <use x="369.220703" xlink:href="#DejaVuSans-Bold-32"/>
     <use x="404.035156" xlink:href="#DejaVuSans-Bold-102"/>
     <use x="447.541016" xlink:href="#DejaVuSans-Bold-105"/>
     <use x="481.818359" xlink:href="#DejaVuSans-Bold-108"/>
     <use x="516.095703" xlink:href="#DejaVuSans-Bold-109"/>
     <use x="620.294922" xlink:href="#DejaVuSans-Bold-115"/>
     <use x="679.816406" xlink:href="#DejaVuSans-Bold-32"/>
     <use x="714.630859" xlink:href="#DejaVuSans-Bold-98"/>
     <use x="786.212891" xlink:href="#DejaVuSans-Bold-121"/>
     <use x="851.398438" xlink:href="#DejaVuSans-Bold-32"/>
     <use x="886.212891" xlink:href="#DejaVuSans-Bold-87"/>
     <use x="992.890625" xlink:href="#DejaVuSans-Bold-111"/>
     <use x="1061.591797" xlink:href="#DejaVuSans-Bold-114"/>
     <use x="1110.908203" xlink:href="#DejaVuSans-Bold-108"/>
     <use x="1145.185547" xlink:href="#DejaVuSans-Bold-100"/>
     <use x="1216.767578" xlink:href="#DejaVuSans-Bold-119"/>
     <use x="1309.150391" xlink:href="#DejaVuSans-Bold-105"/>
     <use x="1343.427734" xlink:href="#DejaVuSans-Bold-100"/>
     <use x="1415.009766" xlink:href="#DejaVuSans-Bold-101"/>
     <use x="1482.832031" xlink:href="#DejaVuSans-Bold-32"/>
     <use x="1517.646484" xlink:href="#DejaVuSans-Bold-71"/>
     <use x="1599.726562" xlink:href="#DejaVuSans-Bold-114"/>
     <use x="1649.042969" xlink:href="#DejaVuSans-Bold-111"/>
     <use x="1717.744141" xlink:href="#DejaVuSans-Bold-115"/>
     <use x="1777.265625" xlink:href="#DejaVuSans-Bold-115"/>
     <use x="1836.787109" xlink:href="#DejaVuSans-Bold-101"/>
     <use x="1904.609375" xlink:href="#DejaVuSans-Bold-115"/>
    </g>
   </g>
   <g id="legend_1">
    <g id="patch_7">
     <path d="M 182.90625 469.627425 
L 706.69375 469.627425 
Q 708.69375 469.627425 708.69375 467.627425 
L 708.69375 395.2368 
Q 708.69375 393.2368 706.69375 393.2368 
L 182.90625 393.2368 
Q 180.90625 393.2368 180.90625 395.2368 
L 180.90625 467.627425 
Q 180.90625 469.627425 182.90625 469.627425 
z
" style="fill:#4c4c4c;opacity:0.5;stroke:#4c4c4c;stroke-linejoin:miter;"/>
    </g>
    <g id="patch_8">
     <path d="M 180.90625 467.627425 
L 704.69375 467.627425 
Q 706.69375 467.627425 706.69375 465.627425 
L 706.69375 393.2368 
Q 706.69375 391.2368 704.69375 391.2368 
L 180.90625 391.2368 
Q 178.90625 391.2368 178.90625 393.2368 
L 178.90625 465.627425 
Q 178.90625 467.627425 180.90625 467.627425 
z
" style="fill:#ffffff;stroke:#cccccc;stroke-linejoin:miter;"/>
    </g>
    <g id="line2d_39"/>
    <g id="line2d_40">
     <defs>
      <path d="M 0 3 
C 0.795609 3 1.55874 2.683901 2.12132 2.12132 
C 2.683901 1.55874 3 0.795609 3 0 
C 3 -0.795609 2.683901 -1.55874 2.12132 -2.12132 
C 1.55874 -2.683901 0.795609 -3 0 -3 
C -0.795609 -3 -1.55874 -2.683901 -2.12132 -2.12132 
C -2.683901 -1.55874 -3 -0.795609 -3 0 
C -3 0.795609 -2.683901 1.55874 -2.12132 2.12132 
C -1.55874 2.683901 -0.795609 3 0 3 
z
" id="m2a4fd432b9" style="stroke:#440154;stroke-opacity:0.5;"/>
     </defs>
     <g>
      <use style="fill:#440154;fill-opacity:0.5;stroke:#440154;stroke-opacity:0.5;" x="192.90625" xlink:href="#m2a4fd432b9" y="399.335238"/>
     </g>
    </g>
    <g id="text_22">
     <!-- Titanic -->
     <defs>
      <path d="M -0.296875 72.90625 
L 61.375 72.90625 
L 61.375 64.59375 
L 35.5 64.59375 
L 35.5 0 
L 25.59375 0 
L 25.59375 64.59375 
L -0.296875 64.59375 
z
" id="DejaVuSans-84"/>
      <path d="M 34.28125 27.484375 
Q 23.390625 27.484375 19.1875 25 
Q 14.984375 22.515625 14.984375 16.5 
Q 14.984375 11.71875 18.140625 8.90625 
Q 21.296875 6.109375 26.703125 6.109375 
Q 34.1875 6.109375 38.703125 11.40625 
Q 43.21875 16.703125 43.21875 25.484375 
L 43.21875 27.484375 
z
M 52.203125 31.203125 
L 52.203125 0 
L 43.21875 0 
L 43.21875 8.296875 
Q 40.140625 3.328125 35.546875 0.953125 
Q 30.953125 -1.421875 24.3125 -1.421875 
Q 15.921875 -1.421875 10.953125 3.296875 
Q 6 8.015625 6 15.921875 
Q 6 25.140625 12.171875 29.828125 
Q 18.359375 34.515625 30.609375 34.515625 
L 43.21875 34.515625 
L 43.21875 35.40625 
Q 43.21875 41.609375 39.140625 45 
Q 35.0625 48.390625 27.6875 48.390625 
Q 23 48.390625 18.546875 47.265625 
Q 14.109375 46.140625 10.015625 43.890625 
L 10.015625 52.203125 
Q 14.9375 54.109375 19.578125 55.046875 
Q 24.21875 56 28.609375 56 
Q 40.484375 56 46.34375 49.84375 
Q 52.203125 43.703125 52.203125 31.203125 
z
" id="DejaVuSans-97"/>
     </defs>
     <g transform="translate(210.90625 402.835238)scale(0.1 -0.1)">
      <use xlink:href="#DejaVuSans-84"/>
      <use x="57.958984" xlink:href="#DejaVuSans-105"/>
      <use x="85.742188" xlink:href="#DejaVuSans-116"/>
      <use x="124.951172" xlink:href="#DejaVuSans-97"/>
      <use x="186.230469" xlink:href="#DejaVuSans-110"/>
      <use x="249.609375" xlink:href="#DejaVuSans-105"/>
      <use x="277.392578" xlink:href="#DejaVuSans-99"/>
     </g>
    </g>
    <g id="line2d_41"/>
    <g id="line2d_42">
     <defs>
      <path d="M 0 3 
C 0.795609 3 1.55874 2.683901 2.12132 2.12132 
C 2.683901 1.55874 3 0.795609 3 0 
C 3 -0.795609 2.683901 -1.55874 2.12132 -2.12132 
C 1.55874 -2.683901 0.795609 -3 0 -3 
C -0.795609 -3 -1.55874 -2.683901 -2.12132 -2.12132 
C -2.683901 -1.55874 -3 -0.795609 -3 0 
C -3 0.795609 -2.683901 1.55874 -2.12132 2.12132 
C -1.55874 2.683901 -0.795609 3 0 3 
z
" id="m99201ec7a1" style="stroke:#482878;stroke-opacity:0.5;"/>
     </defs>
     <g>
      <use style="fill:#482878;fill-opacity:0.5;stroke:#482878;stroke-opacity:0.5;" x="192.90625" xlink:href="#m99201ec7a1" y="414.013362"/>
     </g>
    </g>
    <g id="text_23">
     <!-- Star Wars: Episode I  The Phantom Menace -->
     <defs>
      <path d="M 53.515625 70.515625 
L 53.515625 60.890625 
Q 47.90625 63.578125 42.921875 64.890625 
Q 37.9375 66.21875 33.296875 66.21875 
Q 25.25 66.21875 20.875 63.09375 
Q 16.5 59.96875 16.5 54.203125 
Q 16.5 49.359375 19.40625 46.890625 
Q 22.3125 44.4375 30.421875 42.921875 
L 36.375 41.703125 
Q 47.40625 39.59375 52.65625 34.296875 
Q 57.90625 29 57.90625 20.125 
Q 57.90625 9.515625 50.796875 4.046875 
Q 43.703125 -1.421875 29.984375 -1.421875 
Q 24.8125 -1.421875 18.96875 -0.25 
Q 13.140625 0.921875 6.890625 3.21875 
L 6.890625 13.375 
Q 12.890625 10.015625 18.65625 8.296875 
Q 24.421875 6.59375 29.984375 6.59375 
Q 38.421875 6.59375 43.015625 9.90625 
Q 47.609375 13.234375 47.609375 19.390625 
Q 47.609375 24.75 44.3125 27.78125 
Q 41.015625 30.8125 33.5 32.328125 
L 27.484375 33.5 
Q 16.453125 35.6875 11.515625 40.375 
Q 6.59375 45.0625 6.59375 53.421875 
Q 6.59375 63.09375 13.40625 68.65625 
Q 20.21875 74.21875 32.171875 74.21875 
Q 37.3125 74.21875 42.625 73.28125 
Q 47.953125 72.359375 53.515625 70.515625 
z
" id="DejaVuSans-83"/>
      <path d="M 3.328125 72.90625 
L 13.28125 72.90625 
L 28.609375 11.28125 
L 43.890625 72.90625 
L 54.984375 72.90625 
L 70.3125 11.28125 
L 85.59375 72.90625 
L 95.609375 72.90625 
L 77.296875 0 
L 64.890625 0 
L 49.515625 63.28125 
L 33.984375 0 
L 21.578125 0 
z
" id="DejaVuSans-87"/>
      <path d="M 44.28125 53.078125 
L 44.28125 44.578125 
Q 40.484375 46.53125 36.375 47.5 
Q 32.28125 48.484375 27.875 48.484375 
Q 21.1875 48.484375 17.84375 46.4375 
Q 14.5 44.390625 14.5 40.28125 
Q 14.5 37.15625 16.890625 35.375 
Q 19.28125 33.59375 26.515625 31.984375 
L 29.59375 31.296875 
Q 39.15625 29.25 43.1875 25.515625 
Q 47.21875 21.78125 47.21875 15.09375 
Q 47.21875 7.46875 41.1875 3.015625 
Q 35.15625 -1.421875 24.609375 -1.421875 
Q 20.21875 -1.421875 15.453125 -0.5625 
Q 10.6875 0.296875 5.421875 2 
L 5.421875 11.28125 
Q 10.40625 8.6875 15.234375 7.390625 
Q 20.0625 6.109375 24.8125 6.109375 
Q 31.15625 6.109375 34.5625 8.28125 
Q 37.984375 10.453125 37.984375 14.40625 
Q 37.984375 18.0625 35.515625 20.015625 
Q 33.0625 21.96875 24.703125 23.78125 
L 21.578125 24.515625 
Q 13.234375 26.265625 9.515625 29.90625 
Q 5.8125 33.546875 5.8125 39.890625 
Q 5.8125 47.609375 11.28125 51.796875 
Q 16.75 56 26.8125 56 
Q 31.78125 56 36.171875 55.265625 
Q 40.578125 54.546875 44.28125 53.078125 
z
" id="DejaVuSans-115"/>
      <path d="M 11.71875 12.40625 
L 22.015625 12.40625 
L 22.015625 0 
L 11.71875 0 
z
M 11.71875 51.703125 
L 22.015625 51.703125 
L 22.015625 39.3125 
L 11.71875 39.3125 
z
" id="DejaVuSans-58"/>
      <path d="M 9.8125 72.90625 
L 55.90625 72.90625 
L 55.90625 64.59375 
L 19.671875 64.59375 
L 19.671875 43.015625 
L 54.390625 43.015625 
L 54.390625 34.71875 
L 19.671875 34.71875 
L 19.671875 8.296875 
L 56.78125 8.296875 
L 56.78125 0 
L 9.8125 0 
z
" id="DejaVuSans-69"/>
      <path d="M 18.109375 8.203125 
L 18.109375 -20.796875 
L 9.078125 -20.796875 
L 9.078125 54.6875 
L 18.109375 54.6875 
L 18.109375 46.390625 
Q 20.953125 51.265625 25.265625 53.625 
Q 29.59375 56 35.59375 56 
Q 45.5625 56 51.78125 48.09375 
Q 58.015625 40.1875 58.015625 27.296875 
Q 58.015625 14.40625 51.78125 6.484375 
Q 45.5625 -1.421875 35.59375 -1.421875 
Q 29.59375 -1.421875 25.265625 0.953125 
Q 20.953125 3.328125 18.109375 8.203125 
z
M 48.6875 27.296875 
Q 48.6875 37.203125 44.609375 42.84375 
Q 40.53125 48.484375 33.40625 48.484375 
Q 26.265625 48.484375 22.1875 42.84375 
Q 18.109375 37.203125 18.109375 27.296875 
Q 18.109375 17.390625 22.1875 11.75 
Q 26.265625 6.109375 33.40625 6.109375 
Q 40.53125 6.109375 44.609375 11.75 
Q 48.6875 17.390625 48.6875 27.296875 
z
" id="DejaVuSans-112"/>
      <path d="M 9.8125 72.90625 
L 19.671875 72.90625 
L 19.671875 0 
L 9.8125 0 
z
" id="DejaVuSans-73"/>
      <path d="M 4.890625 30.90625 
L 45.125 30.90625 
L 45.125 23.875 
L 4.890625 23.875 
z
" id="DejaVuSans-8211"/>
      <path d="M 54.890625 33.015625 
L 54.890625 0 
L 45.90625 0 
L 45.90625 32.71875 
Q 45.90625 40.484375 42.875 44.328125 
Q 39.84375 48.1875 33.796875 48.1875 
Q 26.515625 48.1875 22.3125 43.546875 
Q 18.109375 38.921875 18.109375 30.90625 
L 18.109375 0 
L 9.078125 0 
L 9.078125 75.984375 
L 18.109375 75.984375 
L 18.109375 46.1875 
Q 21.34375 51.125 25.703125 53.5625 
Q 30.078125 56 35.796875 56 
Q 45.21875 56 50.046875 50.171875 
Q 54.890625 44.34375 54.890625 33.015625 
z
" id="DejaVuSans-104"/>
      <path d="M 52 44.1875 
Q 55.375 50.25 60.0625 53.125 
Q 64.75 56 71.09375 56 
Q 79.640625 56 84.28125 50.015625 
Q 88.921875 44.046875 88.921875 33.015625 
L 88.921875 0 
L 79.890625 0 
L 79.890625 32.71875 
Q 79.890625 40.578125 77.09375 44.375 
Q 74.3125 48.1875 68.609375 48.1875 
Q 61.625 48.1875 57.5625 43.546875 
Q 53.515625 38.921875 53.515625 30.90625 
L 53.515625 0 
L 44.484375 0 
L 44.484375 32.71875 
Q 44.484375 40.625 41.703125 44.40625 
Q 38.921875 48.1875 33.109375 48.1875 
Q 26.21875 48.1875 22.15625 43.53125 
Q 18.109375 38.875 18.109375 30.90625 
L 18.109375 0 
L 9.078125 0 
L 9.078125 54.6875 
L 18.109375 54.6875 
L 18.109375 46.1875 
Q 21.1875 51.21875 25.484375 53.609375 
Q 29.78125 56 35.6875 56 
Q 41.65625 56 45.828125 52.96875 
Q 50 49.953125 52 44.1875 
z
" id="DejaVuSans-109"/>
     </defs>
     <g transform="translate(210.90625 417.513362)scale(0.1 -0.1)">
      <use xlink:href="#DejaVuSans-83"/>
      <use x="63.476562" xlink:href="#DejaVuSans-116"/>
      <use x="102.685547" xlink:href="#DejaVuSans-97"/>
      <use x="163.964844" xlink:href="#DejaVuSans-114"/>
      <use x="205.078125" xlink:href="#DejaVuSans-32"/>
      <use x="236.865234" xlink:href="#DejaVuSans-87"/>
      <use x="329.367188" xlink:href="#DejaVuSans-97"/>
      <use x="390.646484" xlink:href="#DejaVuSans-114"/>
      <use x="431.759766" xlink:href="#DejaVuSans-115"/>
      <use x="483.859375" xlink:href="#DejaVuSans-58"/>
      <use x="517.550781" xlink:href="#DejaVuSans-32"/>
      <use x="549.337891" xlink:href="#DejaVuSans-69"/>
      <use x="612.521484" xlink:href="#DejaVuSans-112"/>
      <use x="675.998047" xlink:href="#DejaVuSans-105"/>
      <use x="703.78125" xlink:href="#DejaVuSans-115"/>
      <use x="755.880859" xlink:href="#DejaVuSans-111"/>
      <use x="817.0625" xlink:href="#DejaVuSans-100"/>
      <use x="880.539062" xlink:href="#DejaVuSans-101"/>
      <use x="942.0625" xlink:href="#DejaVuSans-32"/>
      <use x="973.849609" xlink:href="#DejaVuSans-73"/>
      <use x="1003.341797" xlink:href="#DejaVuSans-32"/>
      <use x="1035.128906" xlink:href="#DejaVuSans-8211"/>
      <use x="1085.128906" xlink:href="#DejaVuSans-32"/>
      <use x="1116.916016" xlink:href="#DejaVuSans-84"/>
      <use x="1178" xlink:href="#DejaVuSans-104"/>
      <use x="1241.378906" xlink:href="#DejaVuSans-101"/>
      <use x="1302.902344" xlink:href="#DejaVuSans-32"/>
      <use x="1334.689453" xlink:href="#DejaVuSans-80"/>
      <use x="1394.992188" xlink:href="#DejaVuSans-104"/>
      <use x="1458.371094" xlink:href="#DejaVuSans-97"/>
      <use x="1519.650391" xlink:href="#DejaVuSans-110"/>
      <use x="1583.029297" xlink:href="#DejaVuSans-116"/>
      <use x="1622.238281" xlink:href="#DejaVuSans-111"/>
      <use x="1683.419922" xlink:href="#DejaVuSans-109"/>
      <use x="1780.832031" xlink:href="#DejaVuSans-32"/>
      <use x="1812.619141" xlink:href="#DejaVuSans-77"/>
      <use x="1898.898438" xlink:href="#DejaVuSans-101"/>
      <use x="1960.421875" xlink:href="#DejaVuSans-110"/>
      <use x="2023.800781" xlink:href="#DejaVuSans-97"/>
      <use x="2085.080078" xlink:href="#DejaVuSans-99"/>
      <use x="2140.060547" xlink:href="#DejaVuSans-101"/>
     </g>
    </g>
    <g id="line2d_43"/>
    <g id="line2d_44">
     <defs>
      <path d="M 0 3 
C 0.795609 3 1.55874 2.683901 2.12132 2.12132 
C 2.683901 1.55874 3 0.795609 3 0 
C 3 -0.795609 2.683901 -1.55874 2.12132 -2.12132 
C 1.55874 -2.683901 0.795609 -3 0 -3 
C -0.795609 -3 -1.55874 -2.683901 -2.12132 -2.12132 
C -2.683901 -1.55874 -3 -0.795609 -3 0 
C -3 0.795609 -2.683901 1.55874 -2.12132 2.12132 
C -1.55874 2.683901 -0.795609 3 0 3 
z
" id="m2019162fc8" style="stroke:#3e4989;stroke-opacity:0.5;"/>
     </defs>
     <g>
      <use style="fill:#3e4989;fill-opacity:0.5;stroke:#3e4989;stroke-opacity:0.5;" x="192.90625" xlink:href="#m2019162fc8" y="428.691487"/>
     </g>
    </g>
    <g id="text_24">
     <!-- Harry Potter and the Philosopher's Stone -->
     <defs>
      <path d="M 9.8125 72.90625 
L 19.671875 72.90625 
L 19.671875 43.015625 
L 55.515625 43.015625 
L 55.515625 72.90625 
L 65.375 72.90625 
L 65.375 0 
L 55.515625 0 
L 55.515625 34.71875 
L 19.671875 34.71875 
L 19.671875 0 
L 9.8125 0 
z
" id="DejaVuSans-72"/>
      <path d="M 32.171875 -5.078125 
Q 28.375 -14.84375 24.75 -17.8125 
Q 21.140625 -20.796875 15.09375 -20.796875 
L 7.90625 -20.796875 
L 7.90625 -13.28125 
L 13.1875 -13.28125 
Q 16.890625 -13.28125 18.9375 -11.515625 
Q 21 -9.765625 23.484375 -3.21875 
L 25.09375 0.875 
L 2.984375 54.6875 
L 12.5 54.6875 
L 29.59375 11.921875 
L 46.6875 54.6875 
L 56.203125 54.6875 
z
" id="DejaVuSans-121"/>
      <path d="M 9.421875 75.984375 
L 18.40625 75.984375 
L 18.40625 0 
L 9.421875 0 
z
" id="DejaVuSans-108"/>
      <path d="M 17.921875 72.90625 
L 17.921875 45.796875 
L 9.625 45.796875 
L 9.625 72.90625 
z
" id="DejaVuSans-39"/>
     </defs>
     <g transform="translate(210.90625 432.191487)scale(0.1 -0.1)">
      <use xlink:href="#DejaVuSans-72"/>
      <use x="75.195312" xlink:href="#DejaVuSans-97"/>
      <use x="136.474609" xlink:href="#DejaVuSans-114"/>
      <use x="175.837891" xlink:href="#DejaVuSans-114"/>
      <use x="216.951172" xlink:href="#DejaVuSans-121"/>
      <use x="276.130859" xlink:href="#DejaVuSans-32"/>
      <use x="307.917969" xlink:href="#DejaVuSans-80"/>
      <use x="364.595703" xlink:href="#DejaVuSans-111"/>
      <use x="425.777344" xlink:href="#DejaVuSans-116"/>
      <use x="464.986328" xlink:href="#DejaVuSans-116"/>
      <use x="504.195312" xlink:href="#DejaVuSans-101"/>
      <use x="565.71875" xlink:href="#DejaVuSans-114"/>
      <use x="606.832031" xlink:href="#DejaVuSans-32"/>
      <use x="638.619141" xlink:href="#DejaVuSans-97"/>
      <use x="699.898438" xlink:href="#DejaVuSans-110"/>
      <use x="763.277344" xlink:href="#DejaVuSans-100"/>
      <use x="826.753906" xlink:href="#DejaVuSans-32"/>
      <use x="858.541016" xlink:href="#DejaVuSans-116"/>
      <use x="897.75" xlink:href="#DejaVuSans-104"/>
      <use x="961.128906" xlink:href="#DejaVuSans-101"/>
      <use x="1022.652344" xlink:href="#DejaVuSans-32"/>
      <use x="1054.439453" xlink:href="#DejaVuSans-80"/>
      <use x="1114.742188" xlink:href="#DejaVuSans-104"/>
      <use x="1178.121094" xlink:href="#DejaVuSans-105"/>
      <use x="1205.904297" xlink:href="#DejaVuSans-108"/>
      <use x="1233.6875" xlink:href="#DejaVuSans-111"/>
      <use x="1294.869141" xlink:href="#DejaVuSans-115"/>
      <use x="1346.96875" xlink:href="#DejaVuSans-111"/>
      <use x="1408.150391" xlink:href="#DejaVuSans-112"/>
      <use x="1471.626953" xlink:href="#DejaVuSans-104"/>
      <use x="1535.005859" xlink:href="#DejaVuSans-101"/>
      <use x="1596.529297" xlink:href="#DejaVuSans-114"/>
      <use x="1637.642578" xlink:href="#DejaVuSans-39"/>
      <use x="1665.132812" xlink:href="#DejaVuSans-115"/>
      <use x="1717.232422" xlink:href="#DejaVuSans-32"/>
      <use x="1749.019531" xlink:href="#DejaVuSans-83"/>
      <use x="1812.496094" xlink:href="#DejaVuSans-116"/>
      <use x="1851.705078" xlink:href="#DejaVuSans-111"/>
      <use x="1912.886719" xlink:href="#DejaVuSans-110"/>
      <use x="1976.265625" xlink:href="#DejaVuSans-101"/>
     </g>
    </g>
    <g id="line2d_45"/>
    <g id="line2d_46">
     <defs>
      <path d="M 0 3 
C 0.795609 3 1.55874 2.683901 2.12132 2.12132 
C 2.683901 1.55874 3 0.795609 3 0 
C 3 -0.795609 2.683901 -1.55874 2.12132 -2.12132 
C 1.55874 -2.683901 0.795609 -3 0 -3 
C -0.795609 -3 -1.55874 -2.683901 -2.12132 -2.12132 
C -2.683901 -1.55874 -3 -0.795609 -3 0 
C -3 0.795609 -2.683901 1.55874 -2.12132 2.12132 
C -1.55874 2.683901 -0.795609 3 0 3 
z
" id="mf4d24a74a0" style="stroke:#31688e;stroke-opacity:0.5;"/>
     </defs>
     <g>
      <use style="fill:#31688e;fill-opacity:0.5;stroke:#31688e;stroke-opacity:0.5;" x="192.90625" xlink:href="#mf4d24a74a0" y="443.369613"/>
     </g>
    </g>
    <g id="text_25">
     <!-- The Lord of the Rings: The Two Towers -->
     <defs>
      <path d="M 9.8125 72.90625 
L 19.671875 72.90625 
L 19.671875 8.296875 
L 55.171875 8.296875 
L 55.171875 0 
L 9.8125 0 
z
" id="DejaVuSans-76"/>
      <path d="M 37.109375 75.984375 
L 37.109375 68.5 
L 28.515625 68.5 
Q 23.6875 68.5 21.796875 66.546875 
Q 19.921875 64.59375 19.921875 59.515625 
L 19.921875 54.6875 
L 34.71875 54.6875 
L 34.71875 47.703125 
L 19.921875 47.703125 
L 19.921875 0 
L 10.890625 0 
L 10.890625 47.703125 
L 2.296875 47.703125 
L 2.296875 54.6875 
L 10.890625 54.6875 
L 10.890625 58.5 
Q 10.890625 67.625 15.140625 71.796875 
Q 19.390625 75.984375 28.609375 75.984375 
z
" id="DejaVuSans-102"/>
      <path d="M 44.390625 34.1875 
Q 47.5625 33.109375 50.5625 29.59375 
Q 53.5625 26.078125 56.59375 19.921875 
L 66.609375 0 
L 56 0 
L 46.6875 18.703125 
Q 43.0625 26.03125 39.671875 28.421875 
Q 36.28125 30.8125 30.421875 30.8125 
L 19.671875 30.8125 
L 19.671875 0 
L 9.8125 0 
L 9.8125 72.90625 
L 32.078125 72.90625 
Q 44.578125 72.90625 50.734375 67.671875 
Q 56.890625 62.453125 56.890625 51.90625 
Q 56.890625 45.015625 53.6875 40.46875 
Q 50.484375 35.9375 44.390625 34.1875 
z
M 19.671875 64.796875 
L 19.671875 38.921875 
L 32.078125 38.921875 
Q 39.203125 38.921875 42.84375 42.21875 
Q 46.484375 45.515625 46.484375 51.90625 
Q 46.484375 58.296875 42.84375 61.546875 
Q 39.203125 64.796875 32.078125 64.796875 
z
" id="DejaVuSans-82"/>
      <path d="M 4.203125 54.6875 
L 13.1875 54.6875 
L 24.421875 12.015625 
L 35.59375 54.6875 
L 46.1875 54.6875 
L 57.421875 12.015625 
L 68.609375 54.6875 
L 77.59375 54.6875 
L 63.28125 0 
L 52.6875 0 
L 40.921875 44.828125 
L 29.109375 0 
L 18.5 0 
z
" id="DejaVuSans-119"/>
     </defs>
     <g transform="translate(210.90625 446.869613)scale(0.1 -0.1)">
      <use xlink:href="#DejaVuSans-84"/>
      <use x="61.083984" xlink:href="#DejaVuSans-104"/>
      <use x="124.462891" xlink:href="#DejaVuSans-101"/>
      <use x="185.986328" xlink:href="#DejaVuSans-32"/>
      <use x="217.773438" xlink:href="#DejaVuSans-76"/>
      <use x="271.736328" xlink:href="#DejaVuSans-111"/>
      <use x="332.917969" xlink:href="#DejaVuSans-114"/>
      <use x="372.28125" xlink:href="#DejaVuSans-100"/>
      <use x="435.757812" xlink:href="#DejaVuSans-32"/>
      <use x="467.544922" xlink:href="#DejaVuSans-111"/>
      <use x="528.726562" xlink:href="#DejaVuSans-102"/>
      <use x="563.931641" xlink:href="#DejaVuSans-32"/>
      <use x="595.71875" xlink:href="#DejaVuSans-116"/>
      <use x="634.927734" xlink:href="#DejaVuSans-104"/>
      <use x="698.306641" xlink:href="#DejaVuSans-101"/>
      <use x="759.830078" xlink:href="#DejaVuSans-32"/>
      <use x="791.617188" xlink:href="#DejaVuSans-82"/>
      <use x="861.099609" xlink:href="#DejaVuSans-105"/>
      <use x="888.882812" xlink:href="#DejaVuSans-110"/>
      <use x="952.261719" xlink:href="#DejaVuSans-103"/>
      <use x="1015.738281" xlink:href="#DejaVuSans-115"/>
      <use x="1067.837891" xlink:href="#DejaVuSans-58"/>
      <use x="1101.529297" xlink:href="#DejaVuSans-32"/>
      <use x="1133.316406" xlink:href="#DejaVuSans-84"/>
      <use x="1194.400391" xlink:href="#DejaVuSans-104"/>
      <use x="1257.779297" xlink:href="#DejaVuSans-101"/>
      <use x="1319.302734" xlink:href="#DejaVuSans-32"/>
      <use x="1351.089844" xlink:href="#DejaVuSans-84"/>
      <use x="1395.673828" xlink:href="#DejaVuSans-119"/>
      <use x="1477.460938" xlink:href="#DejaVuSans-111"/>
      <use x="1538.642578" xlink:href="#DejaVuSans-32"/>
      <use x="1570.429688" xlink:href="#DejaVuSans-84"/>
      <use x="1614.513672" xlink:href="#DejaVuSans-111"/>
      <use x="1675.695312" xlink:href="#DejaVuSans-119"/>
      <use x="1757.482422" xlink:href="#DejaVuSans-101"/>
      <use x="1819.005859" xlink:href="#DejaVuSans-114"/>
      <use x="1860.119141" xlink:href="#DejaVuSans-115"/>
     </g>
    </g>
    <g id="line2d_47"/>
    <g id="line2d_48">
     <defs>
      <path d="M 0 3 
C 0.795609 3 1.55874 2.683901 2.12132 2.12132 
C 2.683901 1.55874 3 0.795609 3 0 
C 3 -0.795609 2.683901 -1.55874 2.12132 -2.12132 
C 1.55874 -2.683901 0.795609 -3 0 -3 
C -0.795609 -3 -1.55874 -2.683901 -2.12132 -2.12132 
C -2.683901 -1.55874 -3 -0.795609 -3 0 
C -3 0.795609 -2.683901 1.55874 -2.12132 2.12132 
C -1.55874 2.683901 -0.795609 3 0 3 
z
" id="m5c24438601" style="stroke:#26828e;stroke-opacity:0.5;"/>
     </defs>
     <g>
      <use style="fill:#26828e;fill-opacity:0.5;stroke:#26828e;stroke-opacity:0.5;" x="192.90625" xlink:href="#m5c24438601" y="458.047738"/>
     </g>
    </g>
    <g id="text_26">
     <!-- The Lord of the Rings: The Return of the King -->
     <defs>
      <path d="M 9.8125 72.90625 
L 19.671875 72.90625 
L 19.671875 42.09375 
L 52.390625 72.90625 
L 65.09375 72.90625 
L 28.90625 38.921875 
L 67.671875 0 
L 54.6875 0 
L 19.671875 35.109375 
L 19.671875 0 
L 9.8125 0 
z
" id="DejaVuSans-75"/>
     </defs>
     <g transform="translate(210.90625 461.547738)scale(0.1 -0.1)">
      <use xlink:href="#DejaVuSans-84"/>
      <use x="61.083984" xlink:href="#DejaVuSans-104"/>
      <use x="124.462891" xlink:href="#DejaVuSans-101"/>
      <use x="185.986328" xlink:href="#DejaVuSans-32"/>
      <use x="217.773438" xlink:href="#DejaVuSans-76"/>
      <use x="271.736328" xlink:href="#DejaVuSans-111"/>
      <use x="332.917969" xlink:href="#DejaVuSans-114"/>
      <use x="372.28125" xlink:href="#DejaVuSans-100"/>
      <use x="435.757812" xlink:href="#DejaVuSans-32"/>
      <use x="467.544922" xlink:href="#DejaVuSans-111"/>
      <use x="528.726562" xlink:href="#DejaVuSans-102"/>
      <use x="563.931641" xlink:href="#DejaVuSans-32"/>
      <use x="595.71875" xlink:href="#DejaVuSans-116"/>
      <use x="634.927734" xlink:href="#DejaVuSans-104"/>
      <use x="698.306641" xlink:href="#DejaVuSans-101"/>
      <use x="759.830078" xlink:href="#DejaVuSans-32"/>
      <use x="791.617188" xlink:href="#DejaVuSans-82"/>
      <use x="861.099609" xlink:href="#DejaVuSans-105"/>
      <use x="888.882812" xlink:href="#DejaVuSans-110"/>
      <use x="952.261719" xlink:href="#DejaVuSans-103"/>
      <use x="1015.738281" xlink:href="#DejaVuSans-115"/>
      <use x="1067.837891" xlink:href="#DejaVuSans-58"/>
      <use x="1101.529297" xlink:href="#DejaVuSans-32"/>
      <use x="1133.316406" xlink:href="#DejaVuSans-84"/>
      <use x="1194.400391" xlink:href="#DejaVuSans-104"/>
      <use x="1257.779297" xlink:href="#DejaVuSans-101"/>
      <use x="1319.302734" xlink:href="#DejaVuSans-32"/>
      <use x="1351.089844" xlink:href="#DejaVuSans-82"/>
      <use x="1416.072266" xlink:href="#DejaVuSans-101"/>
      <use x="1477.595703" xlink:href="#DejaVuSans-116"/>
      <use x="1516.804688" xlink:href="#DejaVuSans-117"/>
      <use x="1580.183594" xlink:href="#DejaVuSans-114"/>
      <use x="1619.546875" xlink:href="#DejaVuSans-110"/>
      <use x="1682.925781" xlink:href="#DejaVuSans-32"/>
      <use x="1714.712891" xlink:href="#DejaVuSans-111"/>
      <use x="1775.894531" xlink:href="#DejaVuSans-102"/>
      <use x="1811.099609" xlink:href="#DejaVuSans-32"/>
      <use x="1842.886719" xlink:href="#DejaVuSans-116"/>
      <use x="1882.095703" xlink:href="#DejaVuSans-104"/>
      <use x="1945.474609" xlink:href="#DejaVuSans-101"/>
      <use x="2006.998047" xlink:href="#DejaVuSans-32"/>
      <use x="2038.785156" xlink:href="#DejaVuSans-75"/>
      <use x="2104.361328" xlink:href="#DejaVuSans-105"/>
      <use x="2132.144531" xlink:href="#DejaVuSans-110"/>
      <use x="2195.523438" xlink:href="#DejaVuSans-103"/>
     </g>
    </g>
    <g id="line2d_49"/>
    <g id="line2d_50">
     <defs>
      <path d="M 0 3 
C 0.795609 3 1.55874 2.683901 2.12132 2.12132 
C 2.683901 1.55874 3 0.795609 3 0 
C 3 -0.795609 2.683901 -1.55874 2.12132 -2.12132 
C 1.55874 -2.683901 0.795609 -3 0 -3 
C -0.795609 -3 -1.55874 -2.683901 -2.12132 -2.12132 
C -2.683901 -1.55874 -3 -0.795609 -3 0 
C -3 0.795609 -2.683901 1.55874 -2.12132 2.12132 
C -1.55874 2.683901 -0.795609 3 0 3 
z
" id="m0079ba0026" style="stroke:#1f9e89;stroke-opacity:0.5;"/>
     </defs>
     <g>
      <use style="fill:#1f9e89;fill-opacity:0.5;stroke:#1f9e89;stroke-opacity:0.5;" x="466.801563" xlink:href="#m0079ba0026" y="399.335238"/>
     </g>
    </g>
    <g id="text_27">
     <!-- Shreck 2 -->
     <defs>
      <path d="M 9.078125 75.984375 
L 18.109375 75.984375 
L 18.109375 31.109375 
L 44.921875 54.6875 
L 56.390625 54.6875 
L 27.390625 29.109375 
L 57.625 0 
L 45.90625 0 
L 18.109375 26.703125 
L 18.109375 0 
L 9.078125 0 
z
" id="DejaVuSans-107"/>
     </defs>
     <g transform="translate(484.801563 402.835238)scale(0.1 -0.1)">
      <use xlink:href="#DejaVuSans-83"/>
      <use x="63.476562" xlink:href="#DejaVuSans-104"/>
      <use x="126.855469" xlink:href="#DejaVuSans-114"/>
      <use x="165.71875" xlink:href="#DejaVuSans-101"/>
      <use x="227.242188" xlink:href="#DejaVuSans-99"/>
      <use x="282.222656" xlink:href="#DejaVuSans-107"/>
      <use x="340.132812" xlink:href="#DejaVuSans-32"/>
      <use x="371.919922" xlink:href="#DejaVuSans-50"/>
     </g>
    </g>
    <g id="line2d_51"/>
    <g id="line2d_52">
     <defs>
      <path d="M 0 3 
C 0.795609 3 1.55874 2.683901 2.12132 2.12132 
C 2.683901 1.55874 3 0.795609 3 0 
C 3 -0.795609 2.683901 -1.55874 2.12132 -2.12132 
C 1.55874 -2.683901 0.795609 -3 0 -3 
C -0.795609 -3 -1.55874 -2.683901 -2.12132 -2.12132 
C -2.683901 -1.55874 -3 -0.795609 -3 0 
C -3 0.795609 -2.683901 1.55874 -2.12132 2.12132 
C -1.55874 2.683901 -0.795609 3 0 3 
z
" id="m1345d5b40e" style="stroke:#35b779;stroke-opacity:0.5;"/>
     </defs>
     <g>
      <use style="fill:#35b779;fill-opacity:0.5;stroke:#35b779;stroke-opacity:0.5;" x="466.801563" xlink:href="#m1345d5b40e" y="414.013362"/>
     </g>
    </g>
    <g id="text_28">
     <!-- Pirates of the Caribbean: Dead Man's Chest -->
     <defs>
      <path d="M 64.40625 67.28125 
L 64.40625 56.890625 
Q 59.421875 61.53125 53.78125 63.8125 
Q 48.140625 66.109375 41.796875 66.109375 
Q 29.296875 66.109375 22.65625 58.46875 
Q 16.015625 50.828125 16.015625 36.375 
Q 16.015625 21.96875 22.65625 14.328125 
Q 29.296875 6.6875 41.796875 6.6875 
Q 48.140625 6.6875 53.78125 8.984375 
Q 59.421875 11.28125 64.40625 15.921875 
L 64.40625 5.609375 
Q 59.234375 2.09375 53.4375 0.328125 
Q 47.65625 -1.421875 41.21875 -1.421875 
Q 24.65625 -1.421875 15.125 8.703125 
Q 5.609375 18.84375 5.609375 36.375 
Q 5.609375 53.953125 15.125 64.078125 
Q 24.65625 74.21875 41.21875 74.21875 
Q 47.75 74.21875 53.53125 72.484375 
Q 59.328125 70.75 64.40625 67.28125 
z
" id="DejaVuSans-67"/>
      <path d="M 48.6875 27.296875 
Q 48.6875 37.203125 44.609375 42.84375 
Q 40.53125 48.484375 33.40625 48.484375 
Q 26.265625 48.484375 22.1875 42.84375 
Q 18.109375 37.203125 18.109375 27.296875 
Q 18.109375 17.390625 22.1875 11.75 
Q 26.265625 6.109375 33.40625 6.109375 
Q 40.53125 6.109375 44.609375 11.75 
Q 48.6875 17.390625 48.6875 27.296875 
z
M 18.109375 46.390625 
Q 20.953125 51.265625 25.265625 53.625 
Q 29.59375 56 35.59375 56 
Q 45.5625 56 51.78125 48.09375 
Q 58.015625 40.1875 58.015625 27.296875 
Q 58.015625 14.40625 51.78125 6.484375 
Q 45.5625 -1.421875 35.59375 -1.421875 
Q 29.59375 -1.421875 25.265625 0.953125 
Q 20.953125 3.328125 18.109375 8.203125 
L 18.109375 0 
L 9.078125 0 
L 9.078125 75.984375 
L 18.109375 75.984375 
z
" id="DejaVuSans-98"/>
      <path d="M 19.671875 64.796875 
L 19.671875 8.109375 
L 31.59375 8.109375 
Q 46.6875 8.109375 53.6875 14.9375 
Q 60.6875 21.78125 60.6875 36.53125 
Q 60.6875 51.171875 53.6875 57.984375 
Q 46.6875 64.796875 31.59375 64.796875 
z
M 9.8125 72.90625 
L 30.078125 72.90625 
Q 51.265625 72.90625 61.171875 64.09375 
Q 71.09375 55.28125 71.09375 36.53125 
Q 71.09375 17.671875 61.125 8.828125 
Q 51.171875 0 30.078125 0 
L 9.8125 0 
z
" id="DejaVuSans-68"/>
     </defs>
     <g transform="translate(484.801563 417.513362)scale(0.1 -0.1)">
      <use xlink:href="#DejaVuSans-80"/>
      <use x="58.052734" xlink:href="#DejaVuSans-105"/>
      <use x="85.835938" xlink:href="#DejaVuSans-114"/>
      <use x="126.949219" xlink:href="#DejaVuSans-97"/>
      <use x="188.228516" xlink:href="#DejaVuSans-116"/>
      <use x="227.4375" xlink:href="#DejaVuSans-101"/>
      <use x="288.960938" xlink:href="#DejaVuSans-115"/>
      <use x="341.060547" xlink:href="#DejaVuSans-32"/>
      <use x="372.847656" xlink:href="#DejaVuSans-111"/>
      <use x="434.029297" xlink:href="#DejaVuSans-102"/>
      <use x="469.234375" xlink:href="#DejaVuSans-32"/>
      <use x="501.021484" xlink:href="#DejaVuSans-116"/>
      <use x="540.230469" xlink:href="#DejaVuSans-104"/>
      <use x="603.609375" xlink:href="#DejaVuSans-101"/>
      <use x="665.132812" xlink:href="#DejaVuSans-32"/>
      <use x="696.919922" xlink:href="#DejaVuSans-67"/>
      <use x="766.744141" xlink:href="#DejaVuSans-97"/>
      <use x="828.023438" xlink:href="#DejaVuSans-114"/>
      <use x="869.136719" xlink:href="#DejaVuSans-105"/>
      <use x="896.919922" xlink:href="#DejaVuSans-98"/>
      <use x="960.396484" xlink:href="#DejaVuSans-98"/>
      <use x="1023.873047" xlink:href="#DejaVuSans-101"/>
      <use x="1085.396484" xlink:href="#DejaVuSans-97"/>
      <use x="1146.675781" xlink:href="#DejaVuSans-110"/>
      <use x="1210.054688" xlink:href="#DejaVuSans-58"/>
      <use x="1243.746094" xlink:href="#DejaVuSans-32"/>
      <use x="1275.533203" xlink:href="#DejaVuSans-68"/>
      <use x="1352.535156" xlink:href="#DejaVuSans-101"/>
      <use x="1414.058594" xlink:href="#DejaVuSans-97"/>
      <use x="1475.337891" xlink:href="#DejaVuSans-100"/>
      <use x="1538.814453" xlink:href="#DejaVuSans-32"/>
      <use x="1570.601562" xlink:href="#DejaVuSans-77"/>
      <use x="1656.880859" xlink:href="#DejaVuSans-97"/>
      <use x="1718.160156" xlink:href="#DejaVuSans-110"/>
      <use x="1781.539062" xlink:href="#DejaVuSans-39"/>
      <use x="1809.029297" xlink:href="#DejaVuSans-115"/>
      <use x="1861.128906" xlink:href="#DejaVuSans-32"/>
      <use x="1892.916016" xlink:href="#DejaVuSans-67"/>
      <use x="1962.740234" xlink:href="#DejaVuSans-104"/>
      <use x="2026.119141" xlink:href="#DejaVuSans-101"/>
      <use x="2087.642578" xlink:href="#DejaVuSans-115"/>
      <use x="2139.742188" xlink:href="#DejaVuSans-116"/>
     </g>
    </g>
    <g id="line2d_53"/>
    <g id="line2d_54">
     <defs>
      <path d="M 0 3 
C 0.795609 3 1.55874 2.683901 2.12132 2.12132 
C 2.683901 1.55874 3 0.795609 3 0 
C 3 -0.795609 2.683901 -1.55874 2.12132 -2.12132 
C 1.55874 -2.683901 0.795609 -3 0 -3 
C -0.795609 -3 -1.55874 -2.683901 -2.12132 -2.12132 
C -2.683901 -1.55874 -3 -0.795609 -3 0 
C -3 0.795609 -2.683901 1.55874 -2.12132 2.12132 
C -1.55874 2.683901 -0.795609 3 0 3 
z
" id="m781559bdea" style="stroke:#6ece58;stroke-opacity:0.5;"/>
     </defs>
     <g>
      <use style="fill:#6ece58;fill-opacity:0.5;stroke:#6ece58;stroke-opacity:0.5;" x="466.801563" xlink:href="#m781559bdea" y="428.691487"/>
     </g>
    </g>
    <g id="text_29">
     <!-- Pirates of the Caribbean: At World's End -->
     <defs>
      <path d="M 34.1875 63.1875 
L 20.796875 26.90625 
L 47.609375 26.90625 
z
M 28.609375 72.90625 
L 39.796875 72.90625 
L 67.578125 0 
L 57.328125 0 
L 50.6875 18.703125 
L 17.828125 18.703125 
L 11.1875 0 
L 0.78125 0 
z
" id="DejaVuSans-65"/>
     </defs>
     <g transform="translate(484.801563 432.191487)scale(0.1 -0.1)">
      <use xlink:href="#DejaVuSans-80"/>
      <use x="58.052734" xlink:href="#DejaVuSans-105"/>
      <use x="85.835938" xlink:href="#DejaVuSans-114"/>
      <use x="126.949219" xlink:href="#DejaVuSans-97"/>
      <use x="188.228516" xlink:href="#DejaVuSans-116"/>
      <use x="227.4375" xlink:href="#DejaVuSans-101"/>
      <use x="288.960938" xlink:href="#DejaVuSans-115"/>
      <use x="341.060547" xlink:href="#DejaVuSans-32"/>
      <use x="372.847656" xlink:href="#DejaVuSans-111"/>
      <use x="434.029297" xlink:href="#DejaVuSans-102"/>
      <use x="469.234375" xlink:href="#DejaVuSans-32"/>
      <use x="501.021484" xlink:href="#DejaVuSans-116"/>
      <use x="540.230469" xlink:href="#DejaVuSans-104"/>
      <use x="603.609375" xlink:href="#DejaVuSans-101"/>
      <use x="665.132812" xlink:href="#DejaVuSans-32"/>
      <use x="696.919922" xlink:href="#DejaVuSans-67"/>
      <use x="766.744141" xlink:href="#DejaVuSans-97"/>
      <use x="828.023438" xlink:href="#DejaVuSans-114"/>
      <use x="869.136719" xlink:href="#DejaVuSans-105"/>
      <use x="896.919922" xlink:href="#DejaVuSans-98"/>
      <use x="960.396484" xlink:href="#DejaVuSans-98"/>
      <use x="1023.873047" xlink:href="#DejaVuSans-101"/>
      <use x="1085.396484" xlink:href="#DejaVuSans-97"/>
      <use x="1146.675781" xlink:href="#DejaVuSans-110"/>
      <use x="1210.054688" xlink:href="#DejaVuSans-58"/>
      <use x="1243.746094" xlink:href="#DejaVuSans-32"/>
      <use x="1275.533203" xlink:href="#DejaVuSans-65"/>
      <use x="1342.191406" xlink:href="#DejaVuSans-116"/>
      <use x="1381.400391" xlink:href="#DejaVuSans-32"/>
      <use x="1413.1875" xlink:href="#DejaVuSans-87"/>
      <use x="1506.189453" xlink:href="#DejaVuSans-111"/>
      <use x="1567.371094" xlink:href="#DejaVuSans-114"/>
      <use x="1608.484375" xlink:href="#DejaVuSans-108"/>
      <use x="1636.267578" xlink:href="#DejaVuSans-100"/>
      <use x="1699.744141" xlink:href="#DejaVuSans-39"/>
      <use x="1727.234375" xlink:href="#DejaVuSans-115"/>
      <use x="1779.333984" xlink:href="#DejaVuSans-32"/>
      <use x="1811.121094" xlink:href="#DejaVuSans-69"/>
      <use x="1874.304688" xlink:href="#DejaVuSans-110"/>
      <use x="1937.683594" xlink:href="#DejaVuSans-100"/>
     </g>
    </g>
    <g id="line2d_55"/>
    <g id="line2d_56">
     <defs>
      <path d="M 0 3 
C 0.795609 3 1.55874 2.683901 2.12132 2.12132 
C 2.683901 1.55874 3 0.795609 3 0 
C 3 -0.795609 2.683901 -1.55874 2.12132 -2.12132 
C 1.55874 -2.683901 0.795609 -3 0 -3 
C -0.795609 -3 -1.55874 -2.683901 -2.12132 -2.12132 
C -2.683901 -1.55874 -3 -0.795609 -3 0 
C -3 0.795609 -2.683901 1.55874 -2.12132 2.12132 
C -1.55874 2.683901 -0.795609 3 0 3 
z
" id="m35f5f7ce9e" style="stroke:#b5de2b;stroke-opacity:0.5;"/>
     </defs>
     <g>
      <use style="fill:#b5de2b;fill-opacity:0.5;stroke:#b5de2b;stroke-opacity:0.5;" x="466.801563" xlink:href="#m35f5f7ce9e" y="443.369613"/>
     </g>
    </g>
    <g id="text_30">
     <!-- Harry Potter and the Order of the Phoenix -->
     <defs>
      <path d="M 39.40625 66.21875 
Q 28.65625 66.21875 22.328125 58.203125 
Q 16.015625 50.203125 16.015625 36.375 
Q 16.015625 22.609375 22.328125 14.59375 
Q 28.65625 6.59375 39.40625 6.59375 
Q 50.140625 6.59375 56.421875 14.59375 
Q 62.703125 22.609375 62.703125 36.375 
Q 62.703125 50.203125 56.421875 58.203125 
Q 50.140625 66.21875 39.40625 66.21875 
z
M 39.40625 74.21875 
Q 54.734375 74.21875 63.90625 63.9375 
Q 73.09375 53.65625 73.09375 36.375 
Q 73.09375 19.140625 63.90625 8.859375 
Q 54.734375 -1.421875 39.40625 -1.421875 
Q 24.03125 -1.421875 14.8125 8.828125 
Q 5.609375 19.09375 5.609375 36.375 
Q 5.609375 53.65625 14.8125 63.9375 
Q 24.03125 74.21875 39.40625 74.21875 
z
" id="DejaVuSans-79"/>
      <path d="M 54.890625 54.6875 
L 35.109375 28.078125 
L 55.90625 0 
L 45.3125 0 
L 29.390625 21.484375 
L 13.484375 0 
L 2.875 0 
L 24.125 28.609375 
L 4.6875 54.6875 
L 15.28125 54.6875 
L 29.78125 35.203125 
L 44.28125 54.6875 
z
" id="DejaVuSans-120"/>
     </defs>
     <g transform="translate(484.801563 446.869613)scale(0.1 -0.1)">
      <use xlink:href="#DejaVuSans-72"/>
      <use x="75.195312" xlink:href="#DejaVuSans-97"/>
      <use x="136.474609" xlink:href="#DejaVuSans-114"/>
      <use x="175.837891" xlink:href="#DejaVuSans-114"/>
      <use x="216.951172" xlink:href="#DejaVuSans-121"/>
      <use x="276.130859" xlink:href="#DejaVuSans-32"/>
      <use x="307.917969" xlink:href="#DejaVuSans-80"/>
      <use x="364.595703" xlink:href="#DejaVuSans-111"/>
      <use x="425.777344" xlink:href="#DejaVuSans-116"/>
      <use x="464.986328" xlink:href="#DejaVuSans-116"/>
      <use x="504.195312" xlink:href="#DejaVuSans-101"/>
      <use x="565.71875" xlink:href="#DejaVuSans-114"/>
      <use x="606.832031" xlink:href="#DejaVuSans-32"/>
      <use x="638.619141" xlink:href="#DejaVuSans-97"/>
      <use x="699.898438" xlink:href="#DejaVuSans-110"/>
      <use x="763.277344" xlink:href="#DejaVuSans-100"/>
      <use x="826.753906" xlink:href="#DejaVuSans-32"/>
      <use x="858.541016" xlink:href="#DejaVuSans-116"/>
      <use x="897.75" xlink:href="#DejaVuSans-104"/>
      <use x="961.128906" xlink:href="#DejaVuSans-101"/>
      <use x="1022.652344" xlink:href="#DejaVuSans-32"/>
      <use x="1054.439453" xlink:href="#DejaVuSans-79"/>
      <use x="1133.150391" xlink:href="#DejaVuSans-114"/>
      <use x="1172.513672" xlink:href="#DejaVuSans-100"/>
      <use x="1235.990234" xlink:href="#DejaVuSans-101"/>
      <use x="1297.513672" xlink:href="#DejaVuSans-114"/>
      <use x="1338.626953" xlink:href="#DejaVuSans-32"/>
      <use x="1370.414062" xlink:href="#DejaVuSans-111"/>
      <use x="1431.595703" xlink:href="#DejaVuSans-102"/>
      <use x="1466.800781" xlink:href="#DejaVuSans-32"/>
      <use x="1498.587891" xlink:href="#DejaVuSans-116"/>
      <use x="1537.796875" xlink:href="#DejaVuSans-104"/>
      <use x="1601.175781" xlink:href="#DejaVuSans-101"/>
      <use x="1662.699219" xlink:href="#DejaVuSans-32"/>
      <use x="1694.486328" xlink:href="#DejaVuSans-80"/>
      <use x="1754.789062" xlink:href="#DejaVuSans-104"/>
      <use x="1818.167969" xlink:href="#DejaVuSans-111"/>
      <use x="1879.349609" xlink:href="#DejaVuSans-101"/>
      <use x="1940.873047" xlink:href="#DejaVuSans-110"/>
      <use x="2004.251953" xlink:href="#DejaVuSans-105"/>
      <use x="2032.035156" xlink:href="#DejaVuSans-120"/>
     </g>
    </g>
    <g id="line2d_57"/>
    <g id="line2d_58">
     <defs>
      <path d="M 0 3 
C 0.795609 3 1.55874 2.683901 2.12132 2.12132 
C 2.683901 1.55874 3 0.795609 3 0 
C 3 -0.795609 2.683901 -1.55874 2.12132 -2.12132 
C 1.55874 -2.683901 0.795609 -3 0 -3 
C -0.795609 -3 -1.55874 -2.683901 -2.12132 -2.12132 
C -2.683901 -1.55874 -3 -0.795609 -3 0 
C -3 0.795609 -2.683901 1.55874 -2.12132 2.12132 
C -1.55874 2.683901 -0.795609 3 0 3 
z
" id="m864fe60454" style="stroke:#fde725;stroke-opacity:0.5;"/>
     </defs>
     <g>
      <use style="fill:#fde725;fill-opacity:0.5;stroke:#fde725;stroke-opacity:0.5;" x="466.801563" xlink:href="#m864fe60454" y="458.047738"/>
     </g>
    </g>
    <g id="text_31">
     <!-- The Dark Knight -->
     <g transform="translate(484.801563 461.547738)scale(0.1 -0.1)">
      <use xlink:href="#DejaVuSans-84"/>
      <use x="61.083984" xlink:href="#DejaVuSans-104"/>
      <use x="124.462891" xlink:href="#DejaVuSans-101"/>
      <use x="185.986328" xlink:href="#DejaVuSans-32"/>
      <use x="217.773438" xlink:href="#DejaVuSans-68"/>
      <use x="294.775391" xlink:href="#DejaVuSans-97"/>
      <use x="356.054688" xlink:href="#DejaVuSans-114"/>
      <use x="397.167969" xlink:href="#DejaVuSans-107"/>
      <use x="455.078125" xlink:href="#DejaVuSans-32"/>
      <use x="486.865234" xlink:href="#DejaVuSans-75"/>
      <use x="552.441406" xlink:href="#DejaVuSans-110"/>
      <use x="615.820312" xlink:href="#DejaVuSans-105"/>
      <use x="643.603516" xlink:href="#DejaVuSans-103"/>
      <use x="707.080078" xlink:href="#DejaVuSans-104"/>
      <use x="770.458984" xlink:href="#DejaVuSans-116"/>
     </g>
    </g>
   </g>
  </g>
 </g>
 <defs>
  <clipPath id="pefe5624eb6">
   <rect height="288.288" width="669.6" x="108" y="69.12"/>
  </clipPath>
 </defs>
</svg>
